<svg width="200" height="50" viewBox="0 0 200 50" fill="none" xmlns="http://www.w3.org/2000/svg">
<path d="M18.1474 10.5122C19.4077 8.36978 21.8021 6.98352 24.4486 6.98352C28.4814 6.98352 31.758 10.2601 31.758 14.2929V40.3799C31.758 43.2784 34.1525 45.6729 37.051 45.6729C38.5633 45.6729 39.8236 45.1688 40.8318 44.1606C41.2098 43.7825 41.84 43.7825 42.3441 44.1606C42.7221 44.5387 42.7221 45.1688 42.3441 45.6729C40.9578 47.0591 39.1934 47.8153 37.1771 47.8153C33.1443 47.8153 29.8677 44.5387 29.8677 40.5059V14.2929C29.8677 11.3944 27.4732 8.9999 24.5747 8.9999C21.6761 8.9999 19.2817 11.3944 19.2817 14.2929V34.4567C19.2817 35.0869 18.7776 35.4649 18.2735 35.4649C17.6434 35.4649 17.2653 34.9608 17.2653 34.4567V14.2929C17.2653 11.3944 14.8708 8.9999 11.9723 8.9999C9.07372 8.9999 6.67927 11.3944 6.67927 14.2929V29.6678C6.67927 34.9608 3.40265 35.591 1.00819 35.591C0.378072 35.591 0 35.0869 0 34.5828C0 33.9526 0.504096 33.5746 1.00819 33.5746C3.02457 33.5746 4.53686 33.1965 4.53686 29.7939C4.53686 29.7939 4.53686 18.3257 4.53686 14.4189C4.53686 10.3862 8.19156 7.10954 11.8463 7.10954C14.4928 6.98352 16.8872 8.36978 18.1474 10.5122Z" fill="#C3D941"/>
<path d="M49.1491 27.6514C49.1491 28.2815 48.645 28.6596 48.1409 28.6596C47.5107 28.6596 47.1327 28.1555 47.1327 27.6514V26.5172C45.7464 27.9035 43.9821 28.6596 41.8397 28.6596C37.8069 28.6596 34.5303 25.383 34.5303 21.3502C34.5303 17.3175 37.8069 14.0408 41.8397 14.0408C43.856 14.0408 45.7464 14.923 47.1327 16.1832V15.049C47.1327 14.4189 47.6368 14.0408 48.1409 14.0408C48.771 14.0408 49.1491 14.5449 49.1491 15.049V27.6514ZM41.8397 26.5172C44.6122 26.5172 47.1327 24.2488 47.1327 21.2242C47.1327 18.3256 44.7382 15.9312 41.8397 15.9312C38.9411 15.9312 36.5467 18.3256 36.5467 21.2242C36.5467 24.1227 38.9411 26.5172 41.8397 26.5172Z" fill="#C3D941"/>
<path d="M59.1053 28.6596C55.0725 28.6596 51.7959 25.383 51.7959 21.3502C51.7959 17.3175 55.0725 14.0408 59.1053 14.0408C61.1217 14.0408 63.012 14.797 64.2723 16.1832C64.6503 16.5613 64.6503 17.1914 64.2723 17.6955C63.8942 18.0736 63.1381 18.1996 62.76 17.6955C61.7518 16.6873 60.4915 16.1832 59.1053 16.1832C56.2067 16.1832 53.8123 18.5777 53.8123 21.4762C53.8123 24.3748 56.2067 26.7693 59.1053 26.7693C60.6176 26.7693 61.8778 26.2652 62.886 25.257C63.2641 24.8789 63.8942 24.8789 64.3983 25.257C64.7764 25.635 64.7764 26.2652 64.3983 26.7693C62.886 27.9035 61.1217 28.6596 59.1053 28.6596Z" fill="#C3D941"/>
<path d="M80.6549 27.6514C80.6549 28.2815 80.1508 28.6596 79.6467 28.6596C79.0166 28.6596 78.6385 28.1555 78.6385 27.6514V26.5172C77.2523 27.9035 75.4879 28.6596 73.3455 28.6596C69.3128 28.6596 66.0361 25.383 66.0361 21.3502C66.0361 17.3175 69.3128 14.0408 73.3455 14.0408C75.3619 14.0408 77.2523 14.923 78.6385 16.1832V15.049C78.6385 14.4189 79.1426 14.0408 79.6467 14.0408C80.2768 14.0408 80.6549 14.5449 80.6549 15.049V27.6514ZM73.3455 26.5172C76.118 26.5172 78.6385 24.2488 78.6385 21.2242C78.6385 18.3256 76.2441 15.9312 73.3455 15.9312C70.447 15.9312 68.0525 18.3256 68.0525 21.2242C68.0525 24.1227 70.447 26.5172 73.3455 26.5172Z" fill="#C3D941"/>
<path d="M98.2985 27.6514C98.2985 28.2816 97.7944 28.6596 97.2903 28.6596C96.6601 28.6596 96.2821 28.1555 96.2821 27.6514V26.5172C94.8958 27.9035 93.1315 28.6596 90.9891 28.6596C86.9563 28.6596 83.6797 25.383 83.6797 21.3503C83.6797 17.3175 86.9563 14.0409 90.9891 14.0409C93.0055 14.0409 94.8958 14.923 96.2821 16.1833V7.99171C96.2821 7.36159 96.7862 6.98352 97.2903 6.98352C97.9204 6.98352 98.2985 7.48762 98.2985 7.99171V27.6514ZM90.863 26.5172C93.6356 26.5172 96.1561 24.2488 96.1561 21.2242C96.1561 18.3257 93.7616 15.9312 90.863 15.9312C87.9645 15.9312 85.57 18.3257 85.57 21.2242C85.6961 24.1228 87.9645 26.5172 90.863 26.5172Z" fill="#C3D941"/>
<path d="M115.816 27.6514C115.816 28.2815 115.312 28.6596 114.808 28.6596C114.178 28.6596 113.8 28.1555 113.8 27.6514V26.5172C112.413 27.9035 110.649 28.6596 108.507 28.6596C104.474 28.6596 101.197 25.383 101.197 21.3502C101.197 17.3175 104.474 14.0408 108.507 14.0408C110.523 14.0408 112.413 14.923 113.8 16.1832V15.049C113.8 14.4189 114.304 14.0408 114.808 14.0408C115.438 14.0408 115.816 14.5449 115.816 15.049V27.6514ZM108.507 26.5172C111.279 26.5172 113.8 24.2488 113.8 21.2242C113.8 18.3256 111.405 15.9312 108.507 15.9312C105.608 15.9312 103.214 18.3256 103.214 21.2242C103.214 24.1227 105.608 26.5172 108.507 26.5172Z" fill="#C3D941"/>
<path d="M170.636 27.6514C170.636 28.2815 170.132 28.6596 169.628 28.6596C168.998 28.6596 168.62 28.1555 168.62 27.6514V26.5172C167.234 27.9035 165.469 28.6596 163.327 28.6596C159.294 28.6596 156.018 25.383 156.018 21.3502C156.018 17.3175 159.294 14.0408 163.327 14.0408C165.343 14.0408 167.234 14.923 168.62 16.1832V15.049C168.62 14.4189 169.124 14.0408 169.628 14.0408C170.258 14.0408 170.636 14.5449 170.636 15.049V27.6514ZM163.327 26.5172C166.099 26.5172 168.62 24.2488 168.62 21.2242C168.62 18.3256 166.226 15.9312 163.327 15.9312C160.428 15.9312 158.034 18.3256 158.034 21.2242C158.034 24.1227 160.428 26.5172 163.327 26.5172Z" fill="#C3D941"/>
<path d="M151.607 13.7888C150.977 13.7888 150.599 14.2929 150.599 14.797V25.257C150.599 26.1392 149.842 26.8953 148.96 26.8953H148.582C147.7 26.8953 146.944 26.1392 146.944 25.257V21.0982C146.944 17.0654 143.667 13.7888 139.634 13.7888C136.988 13.7888 134.593 15.1751 133.333 17.3175C132.073 15.1751 129.679 13.7888 127.032 13.7888C125.016 13.7888 123.125 14.671 121.739 15.9312V14.797C121.739 14.1669 121.235 13.7888 120.731 13.7888C120.101 13.7888 119.723 14.2929 119.723 14.797V27.3994C119.723 28.0295 120.227 28.4076 120.731 28.4076C121.361 28.4076 121.739 27.9035 121.739 27.3994V21.0982C121.739 18.1997 124.133 15.8052 127.032 15.8052C129.931 15.8052 132.325 18.1997 132.325 21.0982V27.3994C132.325 28.0295 132.829 28.4076 133.333 28.4076C133.963 28.4076 134.341 27.9035 134.341 27.3994V21.0982C134.341 18.0736 136.736 15.8052 139.634 15.8052C142.533 15.8052 144.927 18.1997 144.927 21.0982V25.257C144.927 27.2734 146.566 28.9117 148.582 28.9117H149.086C151.103 28.9117 152.741 27.2734 152.741 25.257V14.797C152.741 14.2929 152.237 13.7888 151.607 13.7888Z" fill="#C3D941"/>
<path d="M151.607 6.98352C150.977 6.98352 150.599 7.48762 150.599 7.99171V9.504C150.599 10.1341 151.103 10.5122 151.607 10.5122C152.237 10.5122 152.615 10.0081 152.615 9.504V7.99171C152.741 7.48762 152.237 6.98352 151.607 6.98352Z" fill="#C3D941"/>
<path d="M68.4307 34.7088L75.7401 42.3963V35.0869H76.7482V44.9167L69.4389 37.2293V44.5387H68.4307V34.7088Z" fill="white"/>
<path d="M82.9237 41.8922L81.7895 44.5387H80.6553L84.9401 34.7088L89.2249 44.5387H88.0907L86.9565 41.8922H82.9237ZM84.9401 37.1033L83.3018 40.884H86.4524L84.9401 37.1033Z" fill="white"/>
<path d="M94.7698 44.5387H93.7616V36.095H91.4932V35.0869H97.1642V36.095H94.8958V44.5387H94.7698Z" fill="white"/>
<path d="M101.827 40.7579C101.827 41.5141 101.827 42.2702 102.205 42.9003C102.583 43.5305 103.465 43.7825 104.095 43.7825C104.725 43.7825 105.481 43.5305 105.985 42.9003C106.489 42.2702 106.489 41.5141 106.489 40.7579V35.2129H107.498V41.136C107.498 42.1442 107.372 43.0264 106.615 43.7825C105.985 44.5387 104.977 44.9167 104.095 44.9167C103.213 44.9167 102.331 44.5387 101.701 43.9085C100.818 43.1524 100.818 42.2702 100.818 41.136V35.2129H101.827V40.7579Z" fill="white"/>
<path d="M113.295 44.5387H112.287V35.0869H113.673C115.438 35.0869 117.076 35.5909 117.076 37.7334C117.076 39.2456 116.194 40.2538 114.682 40.3799L117.706 44.5387H116.446L113.547 40.3799H113.295V44.5387ZM113.295 39.4977H113.673C114.808 39.4977 116.068 39.2456 116.068 37.8594C116.068 36.3471 114.934 36.2211 113.673 36.2211H113.295V39.4977Z" fill="white"/>
<path d="M123.377 41.8922L122.243 44.5387H121.108L125.393 34.7088L129.678 44.5387H128.544L127.41 41.8922H123.377ZM125.393 37.1033L123.755 40.884H126.906L125.393 37.1033Z" fill="white"/>
<path d="M134.467 43.5305H137.114V44.5387H133.459V35.0869H134.467V43.5305Z" fill="white"/>
<path d="M156.899 39.8757C156.899 42.6483 154.631 44.7907 151.984 44.7907C149.338 44.7907 147.069 42.6483 147.069 39.8757C147.069 37.2292 149.338 34.9608 151.984 34.9608C154.757 34.9608 156.899 37.1032 156.899 39.8757ZM148.204 39.8757C148.204 42.0182 149.968 43.7825 152.11 43.7825C154.253 43.7825 156.017 42.0182 156.017 39.8757C156.017 37.7333 154.379 35.969 152.11 35.969C149.842 35.969 148.204 37.7333 148.204 39.8757Z" fill="white"/>
<path d="M162.193 44.5387H161.185V35.0869H162.193V44.5387Z" fill="white"/>
<path d="M167.99 43.5305H170.636V44.5387H166.981V35.0869H167.99V43.5305Z" fill="white"/>
<path d="M199.244 34.0787C199.244 33.5746 198.992 33.7006 198.866 34.0787C197.102 40.5059 193.699 38.1114 191.557 33.7006C189.036 28.5336 188.028 22.7365 188.532 16.9394C188.784 13.1587 190.17 9.63002 190.296 5.8493C190.422 3.83292 189.792 1.81654 188.658 0.0522008C188.658 -0.0738231 188.532 0.0522008 188.532 0.178225C189.666 7.99171 178.702 18.0736 177.82 31.9363C176.938 46.555 185.381 49.4536 189.036 49.3276C192.565 49.3276 200.882 46.555 199.244 34.0787Z" fill="#C3D941"/>
<path d="M191.43 11.6464C191.304 11.1423 191.178 11.3943 191.178 11.6464C190.674 14.5449 190.422 18.3257 192.06 25.0049C193.825 32.0623 197.858 37.2292 199.748 26.7693C200.882 20.4681 195.715 17.4435 193.573 15.049C192.186 13.6628 191.556 12.4025 191.43 11.6464Z" fill="white"/>
<path d="M175.173 14.545H174.039V17.3175H173.535V14.545H172.526V14.0409H175.173V14.545ZM179.206 17.3175H178.828V14.545L177.693 17.3175H177.441L176.307 14.545V17.3175H175.803V14.0409H176.559L177.567 16.4353L178.576 14.0409H179.332V17.3175H179.206Z" fill="#C3D941"/>
</svg>
