<svg width="106" height="50" viewBox="0 0 106 50" fill="none" xmlns="http://www.w3.org/2000/svg">
<path d="M53.2808 0.00460105C59.4431 0.202102 64.0775 5.40434 63.7614 11.4727C63.446 17.5253 58.4344 22.0466 52.5703 21.8052C46.4608 21.5542 42.0788 16.4678 42.1953 10.7472C42.327 4.28585 47.5875 -0.163412 53.2808 0.00460105ZM62.4475 10.7355C62.3858 5.63956 58.2855 1.3055 52.9791 1.31853C47.6986 1.33088 43.5943 5.52367 43.5065 10.7533C43.4146 16.2121 47.7754 20.5543 53.1155 20.5002C58.1628 20.4487 62.5641 16.1997 62.4475 10.7355Z" fill="#040404"/>
<path d="M8.66469 35.668C9.71323 36.0191 10.1466 36.6034 10.1432 37.6636C10.1411 38.2678 10.1679 38.8705 10.111 39.4761C10.0205 40.4437 9.23182 40.8641 8.55496 41.0047C8.16476 41.0856 7.76496 41.1103 7.3631 41.1096C5.0212 41.1034 2.6793 41.1007 0.337402 41.1123C0.0624088 41.1137 0.00137543 41.0383 0.0020612 40.7729C0.0109762 37.4723 0.0109762 34.171 3.89217e-06 30.8704C-0.000681876 30.5885 0.0891538 30.5398 0.347688 30.5405C2.90629 30.5501 5.46558 30.5453 8.02418 30.5453C8.11539 30.5453 8.20728 30.5433 8.29849 30.5488C9.45263 30.6112 10.0458 31.2188 10.0733 32.3736C10.0835 32.796 10.0623 33.2191 10.0822 33.6409C10.1295 34.6654 9.84421 35.3094 8.66469 35.668ZM4.88267 36.5636C4.88267 36.5629 4.88267 36.5629 4.88267 36.5623C4.06112 36.5623 3.23957 36.5698 2.41802 36.5575C2.20475 36.554 2.1444 36.6171 2.14783 36.827C2.1588 37.534 2.15606 38.2417 2.14509 38.9487C2.14234 39.1483 2.21298 39.1977 2.40362 39.1949C3.21351 39.1853 4.02409 39.1908 4.83398 39.1908C5.6329 39.1908 6.43183 39.1983 7.23006 39.1894C7.88223 39.1819 8.13322 38.9206 8.1435 38.2691C8.14693 38.0408 8.14556 37.8131 8.14487 37.5847C8.14282 36.768 7.93503 36.5636 7.10799 36.5636C6.36599 36.5636 5.62399 36.5636 4.88267 36.5636ZM4.82301 34.7834C4.82301 34.7827 4.82301 34.782 4.82301 34.7813C5.62262 34.7813 6.42291 34.793 7.22252 34.7779C7.87605 34.7655 8.07973 34.5413 8.08316 33.8953C8.08453 33.6779 8.08384 33.4612 8.08316 33.2438C8.08178 32.5142 7.87948 32.2892 7.15737 32.2844C5.5801 32.2748 4.00352 32.2865 2.42625 32.2762C2.18761 32.2748 2.14303 32.3626 2.14646 32.5731C2.15606 33.213 2.16086 33.8535 2.14166 34.4926C2.13411 34.7484 2.23081 34.7916 2.45711 34.7882C3.24575 34.7765 4.03438 34.7834 4.82301 34.7834Z" fill="#040404"/>
<path d="M86.8824 41.1068C86.1631 41.1068 85.4677 41.1013 84.7723 41.1102C84.5892 41.113 84.546 41.0032 84.4953 40.8709C84.0351 39.6701 83.5681 38.4721 83.1169 37.2679C83.0668 37.1348 82.9996 37.1266 82.8933 37.1266C81.6137 37.1273 80.3341 37.1334 79.0551 37.1225C78.8144 37.1204 78.8439 37.2521 78.8439 37.4029C78.8453 38.5454 78.8377 39.6879 78.8494 40.8297C78.8514 41.054 78.7938 41.1178 78.5696 41.1109C78.0443 41.0944 77.5183 41.0965 76.9937 41.1102C76.7701 41.1164 76.6851 41.0704 76.6858 40.8188C76.6961 37.4832 76.6954 34.1476 76.6892 30.812C76.6885 30.609 76.7235 30.5384 76.9443 30.5391C79.5948 30.5473 82.2453 30.5343 84.8958 30.5514C85.5507 30.5555 86.1665 30.7277 86.5224 31.3647C86.7295 31.7351 86.7535 32.1499 86.7583 32.5593C86.7686 33.4385 86.7741 34.319 86.7556 35.1982C86.7439 35.7729 86.6644 36.3345 86.1665 36.735C85.9731 36.89 85.7482 36.9682 85.5219 37.0299C85.3429 37.0786 85.3408 37.1458 85.3998 37.2925C85.801 38.2951 86.1967 39.2998 86.591 40.3051C86.6884 40.5575 86.7755 40.8133 86.8824 41.1068ZM81.4622 35.2935C82.2611 35.2935 83.0607 35.3004 83.8596 35.2915C84.4411 35.2846 84.6585 35.07 84.6784 34.4912C84.6921 34.0804 84.6907 33.6689 84.6791 33.2581C84.6613 32.6218 84.474 32.4222 83.8274 32.416C82.2405 32.4003 80.6536 32.4099 79.0668 32.3961C78.8412 32.3941 78.8405 32.5011 78.8412 32.6663C78.8466 33.4426 78.8528 34.2189 78.8377 34.9952C78.8329 35.2297 78.885 35.3065 79.1333 35.3011C79.9096 35.2832 80.6859 35.2942 81.4622 35.2935Z" fill="#040404"/>
<path d="M43.7316 35.0171C43.7316 36.4449 43.746 37.8726 43.7227 39.2997C43.7158 39.729 43.5985 40.1597 43.3277 40.5149C42.9663 40.9881 42.4259 41.0656 41.8882 41.0896C41.2381 41.1191 40.586 41.1047 39.9352 41.1054C38.4388 41.1074 36.9418 41.1109 35.4454 41.104C35.0004 41.1019 34.5574 41.0697 34.1397 40.8839C33.478 40.589 33.3772 39.9738 33.2674 39.3676C33.2332 39.1784 33.2332 38.9809 33.2332 38.7868C33.2311 36.1596 33.238 33.5317 33.2236 30.9045C33.2222 30.5946 33.3106 30.5239 33.6028 30.5377C34.1041 30.5623 34.6088 30.5596 35.1101 30.5377C35.3686 30.526 35.4338 30.6001 35.4331 30.8586C35.4228 33.326 35.4276 35.7934 35.4262 38.2608C35.4262 39.0439 35.4921 39.1111 36.2896 39.1111C37.8093 39.1111 39.329 39.1111 40.8479 39.1111C41.4589 39.1111 41.5728 38.9973 41.5728 38.3979C41.5714 35.8963 41.5755 33.3946 41.5632 30.8929C41.5618 30.6138 41.6167 30.5212 41.9143 30.539C42.4149 30.5685 42.9203 30.5665 43.4209 30.5363C43.7288 30.5178 43.7659 30.6371 43.7631 30.9039C43.7501 32.2747 43.757 33.6456 43.757 35.0164C43.748 35.0171 43.7398 35.0171 43.7316 35.0171Z" fill="#040404"/>
<path d="M71.9215 35.0974C71.9215 36.5142 71.9386 37.931 71.9153 39.3471C71.9009 40.2098 71.5203 40.7577 70.8448 40.9696C70.541 41.065 70.2208 41.1054 69.8992 41.1054C67.7623 41.1068 65.6254 41.1082 63.4886 41.104C63.1231 41.1034 62.7596 41.0533 62.414 40.9271C61.7124 40.6706 61.5876 40.0466 61.4834 39.4212C61.4422 39.1743 61.4306 38.9206 61.4299 38.6703C61.4265 36.0883 61.4347 33.5057 61.4196 30.9238C61.4176 30.5974 61.5163 30.524 61.8201 30.5398C62.2988 30.5652 62.7809 30.5645 63.2589 30.5384C63.5544 30.5226 63.6093 30.6262 63.6079 30.9019C63.5976 33.3926 63.6017 35.8833 63.6031 38.374C63.6031 38.9871 63.7313 39.1119 64.3485 39.1119C65.9368 39.1126 67.525 39.1133 69.1133 39.1133C69.6201 39.1133 69.7675 38.9679 69.7675 38.4659C69.7675 35.9292 69.7716 33.3933 69.7599 30.8566C69.7586 30.5988 69.8162 30.5274 70.0768 30.5384C70.6014 30.561 71.1281 30.559 71.6534 30.5377C71.9064 30.5274 71.9469 30.6159 71.9455 30.8463C71.9345 32.2631 71.94 33.6799 71.94 35.0967C71.9345 35.0974 71.9277 35.0974 71.9215 35.0974Z" fill="#040404"/>
<path d="M100.454 30.546C100.064 31.0171 99.729 31.4265 99.391 31.8331C98.5776 32.8124 97.7643 33.791 96.9496 34.7696C96.5718 35.2229 96.2015 35.6831 95.8072 36.1219C95.6542 36.2927 95.6165 36.4676 95.6172 36.6808C95.622 38.0517 95.611 39.4232 95.6282 40.7941C95.6316 41.067 95.5445 41.1178 95.2997 41.1102C94.7861 41.0938 94.2704 41.0897 93.7574 41.1116C93.4776 41.1239 93.3905 41.0499 93.3947 40.7577C93.4125 39.4095 93.4001 38.0613 93.4091 36.7131C93.4104 36.4717 93.3466 36.29 93.1869 36.0986C92.0293 34.7168 90.8889 33.3206 89.7395 31.9312C89.3726 31.4882 88.9969 31.0527 88.5662 30.5446C89.003 30.5446 89.3603 30.5446 89.7183 30.5446C90.1757 30.5446 90.6386 30.5919 91.0877 30.5322C91.6254 30.4609 91.7632 30.893 91.9936 31.1762C92.8694 32.2487 93.7176 33.3439 94.5694 34.4363C94.6743 34.5714 94.7093 34.5529 94.8066 34.4281C95.4279 33.6292 96.0595 32.8378 96.6891 32.045C97.0491 31.5918 97.4119 31.1412 97.7739 30.69C97.8288 30.6214 97.8693 30.5432 97.9845 30.5432C98.7793 30.5487 99.5734 30.546 100.454 30.546Z" fill="#040404"/>
<path d="M21.2395 35.8262C21.2395 34.1708 21.2457 32.5146 21.2333 30.8592C21.2313 30.6055 21.2889 30.5273 21.5502 30.5383C22.0631 30.5609 22.5781 30.5616 23.0911 30.5383C23.3723 30.5252 23.4518 30.6007 23.4504 30.8914C23.4381 33.5063 23.4498 36.1211 23.4347 38.7366C23.4326 39.061 23.5279 39.122 23.8297 39.1199C25.9082 39.1062 27.9868 39.1172 30.0654 39.1042C30.3541 39.1021 30.4309 39.1844 30.4151 39.4649C30.3897 39.9202 30.4014 40.3783 30.411 40.835C30.4151 41.0284 30.3842 41.1114 30.1531 41.1107C27.264 41.1018 24.3749 41.1032 21.485 41.1128C21.2491 41.1135 21.2354 41.0161 21.2361 40.8289C21.2416 39.1604 21.2388 37.4933 21.2395 35.8262Z" fill="#040404"/>
<path d="M59.1084 41.1115C58.2614 41.0744 57.446 41.1636 56.632 41.0593C56.1568 40.999 55.8345 40.7014 55.5389 40.3612C53.7436 38.2957 51.9516 36.2274 50.1529 34.164C49.1523 33.016 48.1422 31.8769 47.1375 30.7331C47.1019 30.6926 47.0772 30.6432 46.9997 30.5273C47.9474 30.6227 48.8417 30.3991 49.7215 30.6837C50.1398 30.8188 50.3853 31.1507 50.6542 31.4552C52.1567 33.1573 53.653 34.8648 55.1535 36.5696C56.4503 38.0433 57.7492 39.5143 59.0466 40.988C59.0658 41.0093 59.0741 41.0408 59.1084 41.1115Z" fill="#040404"/>
<path d="M14.314 35.8078C14.314 34.1516 14.3194 32.4955 14.3078 30.84C14.3057 30.598 14.3681 30.5328 14.6075 30.5404C15.1554 30.5582 15.704 30.5534 16.2519 30.5404C16.4453 30.5356 16.5043 30.5904 16.5036 30.7872C16.4988 34.1448 16.4988 37.5023 16.5057 40.8598C16.5064 41.0566 16.4494 41.1136 16.2554 41.1094C15.7074 41.0978 15.1588 41.0943 14.6109 41.1108C14.3736 41.1184 14.3064 41.0532 14.3078 40.8091C14.3194 39.1427 14.314 37.4755 14.314 35.8078Z" fill="#040404"/>
<path d="M105.471 27.6787C105.475 29.0399 104.351 30.1611 102.965 30.1776C101.642 30.1934 100.453 29.0351 100.447 27.7246C100.44 26.3682 101.571 25.2229 102.935 25.2058C104.306 25.1879 105.468 26.3215 105.471 27.6787ZM104.488 28.9336C103.851 29.1558 103.668 28.743 103.446 28.3919C103.422 28.3535 103.407 28.3082 103.38 28.2718C103.177 27.9866 102.932 27.7994 102.548 27.8522C102.402 27.872 102.352 27.9111 102.358 28.0579C102.368 28.2972 102.348 28.5386 102.364 28.7773C102.378 28.9837 102.268 28.9878 102.112 28.9926C101.941 28.9974 101.87 28.9617 101.873 28.769C101.885 28.0154 101.885 27.261 101.873 26.5074C101.87 26.3133 101.94 26.2845 102.108 26.2879C102.518 26.2975 102.93 26.2865 103.341 26.2913C103.792 26.2961 104.085 26.508 104.185 26.89C104.268 27.202 104.124 27.4709 103.731 27.7068C103.624 27.7712 103.597 27.8144 103.694 27.9063C103.936 28.1361 104.089 28.4296 104.264 28.7087C104.401 28.9288 104.539 28.9761 104.689 28.7121C104.99 28.1834 105.191 27.2645 104.498 26.46C103.499 25.2997 101.868 25.5987 101.211 26.7563C100.701 27.654 100.966 28.7073 101.761 29.2827C102.502 29.8162 103.789 29.7929 104.488 28.9336ZM102.93 27.4153C102.93 27.4112 102.93 27.4078 102.93 27.4037C103.055 27.4037 103.181 27.4153 103.304 27.4009C103.515 27.3755 103.664 27.2734 103.675 27.0368C103.684 26.807 103.51 26.7433 103.345 26.7234C103.077 26.6912 102.803 26.6987 102.531 26.6912C102.445 26.6884 102.387 26.7145 102.36 26.8132C102.244 27.2315 102.374 27.4153 102.795 27.4153C102.84 27.4153 102.885 27.4153 102.93 27.4153Z" fill="#040404"/>
<path d="M23.7713 46.5944C23.7308 47.3418 23.6911 48.09 23.6485 48.8375C23.6321 49.1228 23.5841 49.4081 23.5957 49.6913C23.6088 50.0067 23.4037 49.9265 23.235 49.9361C22.9929 49.9498 23.0684 49.79 23.0773 49.6597C23.1568 48.4631 23.2316 47.2664 23.3159 46.0704C23.3249 45.9456 23.2432 45.72 23.4901 45.744C23.7061 45.7646 23.9887 45.5835 24.1142 45.9635C24.4173 46.8796 24.7609 47.7821 25.0304 48.7099C25.0551 48.7964 25.088 48.88 25.1284 48.9973C25.2896 48.8238 25.3088 48.6153 25.3595 48.4343C25.6057 47.5572 25.963 46.7199 26.2647 45.8627C26.3628 45.5835 26.6673 45.7797 26.873 45.7406C27.0616 45.7049 27.0129 45.8791 27.0191 45.9779C27.1007 47.2308 27.1748 48.485 27.2591 49.7379C27.2694 49.8922 27.2255 49.9546 27.076 49.9354C26.9286 49.9162 26.7201 50.0307 26.7078 49.7317C26.6858 49.1845 26.6406 48.6379 26.6083 48.0907C26.5802 47.6155 26.5576 47.1395 26.4629 46.6444C26.3038 47.1066 26.1461 47.5695 25.985 48.031C25.7785 48.6215 25.5659 49.2099 25.3643 49.8024C25.3067 49.9718 25.1778 49.8874 25.0791 49.9052C24.9549 49.9279 24.8932 49.8929 24.8452 49.7441C24.5469 48.8252 24.1992 47.9227 23.9558 46.9866C23.9201 46.8488 23.8611 46.7178 23.8131 46.5834C23.8001 46.5868 23.7857 46.5902 23.7713 46.5944Z" fill="#040404"/>
<path d="M48.25 41.1012C47.9757 41.1012 47.702 41.1053 47.4277 41.0985C47.353 41.0971 47.2481 41.1218 47.2124 41.034C47.174 40.9387 47.2529 40.8619 47.3098 40.7947C47.6815 40.3496 48.0614 39.9107 48.4303 39.4629C48.9721 38.8066 49.5036 38.1421 50.0453 37.4858C50.3313 37.1395 50.3436 37.1375 50.6563 37.4632C50.9327 37.7512 51.1741 38.0722 51.48 38.3314C51.6082 38.4404 51.6226 38.5639 51.5197 38.69C50.9958 39.3347 50.5542 40.0465 49.9781 40.6472C49.5571 41.0861 48.9968 41.143 48.4207 41.106C48.3638 41.1026 48.3062 41.1053 48.2493 41.1053C48.25 41.104 48.25 41.1026 48.25 41.1012Z" fill="#F8CD10"/>
<path d="M61.3742 46.5512C61.3742 47.6272 61.3694 48.6428 61.3783 49.6591C61.3797 49.8505 61.3605 49.943 61.128 49.9458C60.9003 49.9485 60.8681 49.8683 60.8688 49.6715C60.8763 48.4721 60.8688 47.2727 60.8777 46.0733C60.8784 45.9635 60.7707 45.7544 60.986 45.7475C61.1822 45.742 61.4318 45.6186 61.5758 45.8758C62.1422 46.8873 62.8465 47.8178 63.3437 48.8705C63.3663 48.9178 63.4068 48.9569 63.4623 49.0323C63.4623 48.6216 63.4637 48.2574 63.4623 47.8926C63.4596 47.2528 63.4603 46.6136 63.4466 45.9738C63.4425 45.7763 63.5083 45.7283 63.7037 45.7276C63.9102 45.7269 63.9787 45.7736 63.9774 45.9903C63.9678 47.2013 63.976 48.4117 63.9698 49.6228C63.9691 49.7277 64.0562 49.9177 63.8676 49.9259C63.6736 49.9341 63.4438 50.0336 63.2957 49.7668C62.719 48.7244 62.0222 47.7513 61.486 46.6843C61.4681 46.6486 61.4332 46.6205 61.3742 46.5512Z" fill="#040404"/>
<path d="M53.6791 47.8584C53.6791 48.4639 53.6695 49.0694 53.6846 49.6743C53.6901 49.8848 53.6352 49.9602 53.4213 49.9417C53.2457 49.9266 53.0901 49.9637 53.1072 49.6825C53.1353 49.2162 53.1003 48.7457 53.1209 48.2781C53.1312 48.0415 53.0468 47.9845 52.8295 47.9914C52.3844 48.0044 51.9379 48.0085 51.4929 47.9914C51.2371 47.9818 51.1287 48.0374 51.1459 48.3254C51.1733 48.7807 51.1411 49.2388 51.1548 49.6955C51.161 49.8965 51.0958 49.9541 50.9024 49.9417C50.7337 49.9308 50.5986 49.9541 50.6007 49.7017C50.6123 48.4564 50.611 47.2117 50.6021 45.9663C50.6007 45.7524 50.6898 45.7243 50.8695 45.7311C51.0423 45.7373 51.1733 45.7229 51.1596 45.9732C51.137 46.3833 51.1596 46.7954 51.1486 47.2062C51.1438 47.3859 51.1774 47.4784 51.388 47.473C51.879 47.4599 52.3707 47.462 52.8617 47.4723C53.0551 47.4764 53.1257 47.4085 53.1209 47.2158C53.1113 46.816 53.1278 46.4155 53.112 46.0164C53.1038 45.7983 53.1614 45.7215 53.3932 45.7304C53.6003 45.7387 53.6956 45.7661 53.6887 46.0075C53.6709 46.624 53.6826 47.2412 53.6826 47.8577C53.6805 47.8584 53.6798 47.8584 53.6791 47.8584Z" fill="#040404"/>
<path d="M58.0012 30.7515C57.982 30.779 57.9566 30.829 57.9196 30.8681C57.0616 31.7768 56.3306 32.7924 55.507 33.7298C55.3671 33.8889 55.2498 33.9884 55.0674 33.784C54.8116 33.498 54.5469 33.2196 54.2822 32.9412C54.0956 32.7444 54.0675 32.564 54.2719 32.348C54.7115 31.8817 54.992 31.2768 55.5262 30.8928C55.7497 30.7323 55.9946 30.6014 56.2771 30.5945C56.7798 30.5828 57.2825 30.5835 57.7851 30.5835C57.8811 30.5849 58.006 30.5616 58.0012 30.7515Z" fill="#F8CD10"/>
<path d="M69.3159 48.7674C69.3159 48.9732 69.2946 49.1816 69.3214 49.3833C69.3612 49.6829 69.2364 49.8235 68.9524 49.875C68.3627 49.9819 67.766 50.0505 67.1907 49.8558C66.3705 49.578 65.9145 48.8552 65.9213 47.8753C65.9275 46.9577 66.3026 46.237 67.1722 45.8605C67.7695 45.6019 68.4018 45.6602 69.0224 45.7946C69.2508 45.844 69.1486 46.0161 69.1225 46.1553C69.091 46.3213 69.0258 46.3398 68.8619 46.2808C68.0095 45.9743 67.2058 46.1876 66.7648 46.8535C66.328 47.5139 66.4055 48.8175 67.2058 49.2934C67.6481 49.5568 68.1398 49.5506 68.6315 49.4429C68.7378 49.4196 68.7769 49.3517 68.7707 49.2434C68.7639 49.1179 68.7693 48.9924 68.7687 48.8662C68.7673 48.214 68.768 48.2037 68.1343 48.1825C67.9505 48.1763 67.9375 48.1057 67.9396 47.9589C67.9416 47.8128 67.9546 47.7264 68.1405 47.7354C68.4594 47.7511 68.7803 47.7498 69.0999 47.7347C69.2953 47.7258 69.3262 47.8129 69.3186 47.9788C69.307 48.2415 69.3152 48.5041 69.3159 48.7674Z" fill="#040404"/>
<path d="M34.8965 47.7123C35.38 47.1054 35.8031 46.5726 36.2283 46.0411C36.5094 45.6893 36.5835 45.668 37.1026 45.7928C36.6761 46.3079 36.2735 46.8229 35.8374 47.3084C35.6755 47.4888 35.6995 47.5868 35.823 47.7665C36.3044 48.4646 36.7659 49.1764 37.2432 49.8965C36.637 49.9856 36.6384 49.9843 36.3263 49.5042C36.0534 49.0845 35.7825 48.6635 35.4986 48.2513C35.4266 48.1471 35.3875 47.9043 35.2641 47.9695C35.094 48.06 34.8999 48.2129 34.8986 48.4625C34.8958 48.8507 34.889 49.2395 34.9013 49.627C34.9082 49.8389 34.8876 49.9534 34.6181 49.9486C34.3657 49.9445 34.3259 49.8615 34.328 49.6338C34.3397 48.4351 34.3403 47.2357 34.328 46.037C34.3259 45.8038 34.3781 45.7332 34.6229 45.727C34.9013 45.7195 34.904 45.8505 34.8999 46.0562C34.8896 46.5767 34.8965 47.0979 34.8965 47.7123Z" fill="#040404"/>
<path d="M57.2554 45.7357C57.4714 45.7357 57.625 45.7035 57.6998 45.9422C58.0886 47.1772 58.4994 48.4061 58.8992 49.6378C58.93 49.7324 59.0562 49.8984 58.904 49.9176C58.736 49.9388 58.4768 50.078 58.3691 49.7955C58.2518 49.4883 58.1339 49.1776 58.0577 48.8587C58.0049 48.6379 57.8897 48.6071 57.6991 48.6139C57.3912 48.6256 57.0826 48.6263 56.7747 48.6132C56.6074 48.6057 56.5271 48.6681 56.4812 48.8231C56.3872 49.1378 56.2857 49.4512 56.176 49.7612C56.1253 49.9052 55.7371 50.0143 55.6247 49.9272C55.5526 49.8709 55.5945 49.8017 55.6144 49.7406C55.8948 48.8875 56.1753 48.0351 56.4592 47.1834C56.5813 46.8179 56.739 46.4613 56.8268 46.0875C56.8947 45.8036 57.0037 45.6637 57.2554 45.7357ZM57.2629 46.3577C57.0798 46.9269 56.9063 47.4872 56.7006 48.0365C56.6595 48.1462 56.715 48.175 56.8158 48.1743C57.1553 48.1716 57.4947 48.1736 57.8458 48.1736C57.7046 47.5359 57.4049 46.9777 57.2629 46.3577Z" fill="#040404"/>
<path d="M30.7729 45.7446C31.0287 45.674 31.1288 45.8063 31.2028 46.0381C31.5876 47.2375 31.9887 48.4307 32.3769 49.6288C32.4077 49.7234 32.549 49.8983 32.3536 49.9243C32.1842 49.947 31.8996 50.0711 31.8317 49.7783C31.7563 49.4539 31.5821 49.1652 31.5327 48.8381C31.506 48.6591 31.4147 48.6166 31.255 48.6186C30.9128 48.6241 30.5706 48.6255 30.2291 48.6166C30.0631 48.6125 29.9884 48.6797 29.9431 48.8367C29.8519 49.1522 29.7257 49.458 29.6372 49.7742C29.546 50.1013 29.2834 49.9387 29.1339 49.9216C28.9467 49.8997 29.0996 49.7275 29.1305 49.6322C29.5234 48.4349 29.9314 47.243 30.3134 46.0422C30.3957 45.7857 30.5102 45.6774 30.7729 45.7446ZM30.7379 46.311C30.5486 46.9001 30.382 47.4419 30.1975 47.9774C30.1433 48.1352 30.1667 48.1818 30.3312 48.177C30.5706 48.1695 30.8126 48.1564 31.0506 48.1797C31.2968 48.2038 31.3201 48.0995 31.2577 47.9075C31.0876 47.3877 30.9189 46.8686 30.7379 46.311Z" fill="#040404"/>
<path d="M38.9423 47.8429C38.943 47.2374 38.9519 46.6318 38.9375 46.027C38.9327 45.8123 38.9779 45.7225 39.2138 45.7294C39.7844 45.7451 40.3563 45.7431 40.9269 45.7321C41.1223 45.7287 41.1758 45.789 41.1813 45.9838C41.1875 46.1991 41.0778 46.1943 40.9289 46.1923C40.5291 46.1881 40.1287 46.2005 39.7295 46.1854C39.53 46.1779 39.4724 46.2457 39.4827 46.4371C39.4971 46.7107 39.4957 46.9857 39.4834 47.2593C39.4751 47.4363 39.5293 47.5 39.7138 47.4932C40.056 47.4795 40.3988 47.4911 40.7417 47.4891C40.9241 47.4884 41.0867 47.4486 41.0874 47.751C41.088 48.0781 40.8885 47.9876 40.7273 47.991C40.3851 47.9979 40.0423 47.9965 39.6994 47.9904C39.5451 47.9876 39.4751 48.0281 39.4827 48.2029C39.4971 48.5451 39.4964 48.8887 39.4827 49.2309C39.4751 49.4174 39.5423 49.4641 39.7199 49.4593C40.1533 49.4469 40.5881 49.4613 41.0222 49.4504C41.2005 49.4462 41.2931 49.4744 41.2842 49.6863C41.2773 49.8666 41.2485 49.9503 41.0394 49.9455C40.4228 49.9311 39.8057 49.9311 39.1892 49.9421C38.9958 49.9455 38.9341 49.892 38.9375 49.6945C38.9491 49.0766 38.9416 48.4594 38.9423 47.8429Z" fill="#040404"/>
<path d="M71.3707 47.7921C71.3707 47.1982 71.3789 46.6036 71.3666 46.0105C71.3625 45.8116 71.3947 45.7252 71.6231 45.7313C72.2053 45.7478 72.7882 45.7423 73.3704 45.7307C73.5548 45.7265 73.6028 45.7903 73.6063 45.9652C73.6097 46.1476 73.5487 46.2004 73.3704 46.1942C72.9939 46.1812 72.616 46.2011 72.2396 46.1853C72.0133 46.1757 71.8974 46.2251 71.9275 46.4816C71.9652 46.8066 71.7883 47.2428 72.0009 47.4314C72.184 47.5932 72.6085 47.4814 72.9267 47.489C73.0296 47.4917 73.1324 47.4951 73.2353 47.4883C73.4115 47.4759 73.5281 47.4807 73.5356 47.7269C73.5439 47.9848 73.4266 48.0006 73.2332 47.9964C72.8903 47.9882 72.5475 48.004 72.2053 47.9889C72.0037 47.98 71.9145 48.0252 71.9282 48.2502C71.9474 48.5691 71.9433 48.89 71.9289 49.2096C71.92 49.4105 71.9995 49.4626 72.1881 49.4578C72.6106 49.4462 73.0337 49.4619 73.4561 49.4496C73.6344 49.4448 73.6995 49.4962 73.6988 49.6786C73.6982 49.8576 73.668 49.9468 73.4554 49.942C72.8506 49.9276 72.2444 49.9269 71.6395 49.9427C71.3995 49.9488 71.3542 49.8563 71.3666 49.643C71.3844 49.3358 71.3707 49.0265 71.3707 48.7179C71.3707 48.4086 71.3707 48.1007 71.3707 47.7921Z" fill="#040404"/>
<path d="M45.5394 47.9172C45.5867 47.0312 45.8494 46.3221 46.6291 45.9093C47.2476 45.5822 47.9012 45.6144 48.5554 45.7824C48.7577 45.8345 48.6315 45.973 48.613 46.0862C48.5876 46.2412 48.5362 46.305 48.3654 46.2391C47.9464 46.0773 47.5274 46.0773 47.0995 46.2364C46.2403 46.5566 46.0126 47.5386 46.1751 48.2944C46.3884 49.2853 47.2058 49.7372 48.2331 49.456C48.4052 49.4094 48.5664 49.3038 48.6363 49.6055C48.6761 49.7777 48.6363 49.851 48.4985 49.8798C47.6502 50.0595 46.8225 50.1116 46.1257 49.4458C45.6731 49.0117 45.584 48.4466 45.5394 47.9172Z" fill="#040404"/>
<path d="M77.4449 47.1943C77.4449 47.6167 77.4477 48.0391 77.4435 48.4616C77.4422 48.6344 77.401 48.7599 77.1727 48.7571C76.9224 48.7544 76.9752 48.5912 76.9725 48.4533C76.9533 47.6194 76.9437 46.7856 76.9162 45.9524C76.9101 45.7603 76.9745 45.7082 77.1494 45.7343C77.2989 45.7569 77.5032 45.6575 77.4881 45.9606C77.4675 46.3707 77.4833 46.7828 77.4833 47.1943C77.4703 47.1943 77.4579 47.1943 77.4449 47.1943Z" fill="#040404"/>
<path d="M76.8466 49.5672C76.8645 49.4115 76.9276 49.2367 77.1772 49.2257C77.4405 49.214 77.5448 49.3745 77.5516 49.6084C77.5585 49.8477 77.4378 50.0054 77.1909 49.9999C76.9646 49.9951 76.8439 49.8525 76.8466 49.5672Z" fill="#040404"/>
<path d="M52.2643 9.89678C50.8702 9.89678 49.4767 9.89129 48.0832 9.90226C47.8473 9.90432 47.7753 9.84603 47.7767 9.59984C47.7869 7.6694 47.7849 5.73828 47.776 3.80784C47.7746 3.57468 47.8274 3.50336 48.075 3.50541C50.4512 3.52256 52.828 3.49444 55.2035 3.54176C56.8124 3.57399 58.6146 4.7542 59.1563 6.38907C59.7152 8.074 59.552 9.68556 58.5144 11.138C57.7861 12.1578 56.7301 12.6885 55.4724 12.7023C53.496 12.7235 51.5196 12.7009 49.5432 12.6824C49.2874 12.6803 49.2127 12.7413 49.2154 13.0026C49.2298 14.1677 49.2271 15.3335 49.2182 16.4987C49.2161 16.7263 49.2662 16.8148 49.5165 16.8134C51.7555 16.8011 53.9945 16.8018 56.2336 16.799C57.6559 16.797 58.7702 15.7985 59.0404 14.3906C59.1927 13.5979 58.978 12.873 58.7497 12.1461C58.668 11.8862 58.677 11.7874 58.965 11.7312C59.2187 11.6818 59.4677 11.5769 59.7008 11.4596C59.9587 11.33 60.0698 11.4343 60.163 11.6606C60.3996 12.2352 60.5416 12.8243 60.545 13.4525C60.5519 14.7788 60.2165 15.9816 59.2818 16.9561C58.4342 17.8393 57.3486 18.2625 56.1499 18.2707C53.4432 18.2899 50.7358 18.2439 48.0283 18.2323C47.8308 18.2316 47.7767 18.1754 47.7773 17.982C47.7828 15.8225 47.7856 13.6637 47.7739 11.5042C47.7725 11.2471 47.9015 11.2711 48.0695 11.2717C50.469 11.2765 52.8685 11.2765 55.2673 11.282C56.0779 11.2841 56.7561 11.0111 57.2869 10.3837C57.411 10.2376 57.4206 10.1814 57.2327 10.0915C56.9475 9.95507 56.6581 9.88169 56.3426 9.88237C54.9827 9.88512 53.6235 9.88375 52.2636 9.88375C52.2643 9.88718 52.2643 9.89198 52.2643 9.89678ZM58.0083 8.80915C58.0083 8.4258 58.022 8.08292 58.0056 7.74141C57.9315 6.20186 56.6306 5.05251 55.2365 4.99216C53.3218 4.9085 51.401 4.96199 49.4829 4.94759C49.2689 4.94621 49.2147 5.01548 49.2168 5.22189C49.2271 6.20391 49.2319 7.18593 49.2147 8.16727C49.2099 8.43266 49.2908 8.48409 49.5398 8.48409C51.355 8.47998 53.1716 8.46078 54.9855 8.51152C55.9785 8.53827 56.9968 8.37506 58.0083 8.80915Z" fill="#040404"/>
</svg>
