<svg width="51" height="50" viewBox="0 0 51 50" fill="none" xmlns="http://www.w3.org/2000/svg">
<path d="M46.0595 19.9262C46.062 30.9539 37.1749 39.987 26.3208 39.9883C15.3308 39.9883 6.45756 30.9829 6.4777 19.8494C6.49783 8.90726 15.4126 -0.00251635 26.3397 5.33108e-07C37.1636 0.00251742 46.057 8.9878 46.0595 19.9262ZM18.2882 26.0926C21.2229 27.5259 24.2205 28.7353 27.4723 29.1846C28.3922 29.3117 29.3172 29.4048 30.2006 29.0512C31.8303 28.3993 32.5816 26.9118 32.3249 25.0053C32.0908 23.2648 31.4666 21.6452 30.8575 20.0168C29.9615 17.6245 28.9875 15.2561 28.6288 12.7015C28.1129 9.02556 29.6935 6.03298 32.9856 4.54424C33.7809 4.18433 34.6341 3.95655 35.4609 3.6671C32.233 4.04841 29.0957 4.73175 26.3284 6.5502C23.8543 8.17485 22.3857 10.435 22.1315 13.4263C21.9339 15.7582 22.4599 17.9618 23.3081 20.1087C23.4843 20.5554 23.6794 20.9959 23.8644 21.4388C22.1755 19.9023 20.2916 18.7634 18.1951 17.9605C16.1463 17.1765 12.5384 16.7146 11.6486 17.1526C13.5627 17.6824 15.3497 18.4438 17.0335 19.4392C18.7916 20.4774 20.4716 21.615 21.6747 23.3164C22.5782 24.595 22.2007 25.5426 20.6717 25.8862C19.8902 26.0624 19.0936 26.0259 18.2882 26.0926ZM17.4715 32.0526C17.4551 32.1117 17.4387 32.1696 17.4224 32.2287C17.6602 32.6352 18.0441 33.0241 18.0931 33.452C18.1422 33.8748 17.5621 34.1894 17.4576 34.7595C18.3045 34.5543 19.0395 34.4587 19.5617 35.3472C19.7354 35.6429 19.8512 35.1697 19.8411 35.0464C19.7769 34.2422 20.2375 33.8924 20.9158 33.6797C21.0555 33.6357 21.2569 33.6457 21.3336 33.4368C21.1172 33.2544 20.8441 33.1977 20.5911 33.1612C20.079 33.087 19.9569 32.8064 19.9871 32.3357C20.0072 32.0261 20.0777 31.6901 19.8487 31.261C19.305 32.3143 18.5978 32.8215 17.4715 32.0526ZM12.4905 28.7202C12.415 28.7152 12.3408 28.7089 12.2653 28.7038C12.8618 29.883 12.2565 30.5902 11.3642 31.222C11.9192 31.3063 12.4402 31.1792 12.8492 31.339C13.3211 31.5228 13.0996 32.2464 13.5489 32.7069C13.7301 31.5316 14.4889 31.2988 15.5473 31.4875C15.4328 31.295 15.4101 31.2069 15.3522 31.1666C14.6576 30.6821 14.4424 30.0768 14.8463 29.2941C14.8866 29.216 14.8866 29.0612 14.835 29.0033C14.7293 28.8838 14.5959 28.9945 14.5091 29.06C13.8887 29.5269 13.3324 29.4086 12.7989 28.9102C12.7145 28.8284 12.595 28.7831 12.4905 28.7202ZM32.6093 31.6134C32.3991 32.0412 32.7389 32.5912 32.4268 32.9737C32.1411 33.3236 31.5522 33.2682 31.2074 33.7062C31.4251 33.7741 31.5761 33.8509 31.7347 33.866C32.4331 33.9314 32.6911 34.3278 32.6722 34.9973C32.6659 35.2188 32.6483 35.4894 32.9528 35.7373C33.2838 34.4713 34.1005 34.4738 35.2105 35.0527C35.0104 34.7041 34.9538 34.5418 34.8455 34.4272C34.3459 33.9025 34.3145 33.3928 34.8518 32.8781C34.882 32.8492 34.9085 32.8152 34.9261 32.7774C34.9752 32.6667 35.0834 32.5295 35.0519 32.4477C34.9852 32.2728 34.7864 32.3407 34.6694 32.3835C33.8992 32.6679 33.3392 32.3986 32.9038 31.7568C32.8459 31.67 32.7641 31.6008 32.6093 31.6134ZM24.8799 36.437C25.1102 36.3753 25.1857 36.3791 25.2235 36.3426C25.8842 35.6945 26.5524 35.5812 27.2445 36.2973C27.3137 36.369 27.4421 36.4521 27.5075 36.3438C27.5617 36.2532 27.5541 36.0985 27.5227 35.9865C27.3314 35.322 27.3955 34.7582 28.0801 34.4021C28.1833 34.348 28.3343 34.2762 28.2626 34.1277C28.2286 34.0573 28.0852 33.9931 27.9983 34.0006C27.0495 34.0875 26.7361 33.5061 26.6128 32.7107C26.6002 32.6314 26.5637 32.5484 26.351 32.5459C26.1799 33.5728 25.6123 34.1705 24.33 33.8559C25.3606 34.5619 25.528 35.3937 24.8799 36.437ZM41.246 31.2383C40.7804 30.8155 40.321 30.555 40.1046 30.1624C39.8655 29.727 40.3751 29.25 40.3147 28.5805C39.5395 29.4476 38.7392 29.6024 37.7727 28.7378C37.9413 29.4161 38.1515 29.8591 38.1313 30.292C38.1099 30.7664 37.4555 30.92 37.2731 31.4774C38.1326 31.3705 38.8864 31.4158 39.118 32.4037C39.1318 32.4616 39.2388 32.5434 39.2954 32.5371C39.4514 32.5207 39.4426 32.3571 39.4842 32.2489C39.8428 31.3 39.8416 31.3 40.8533 31.2786C40.9289 31.2774 41.0056 31.2635 41.246 31.2383Z" fill="#E11E23"/>
<path d="M4.9789 47.9166C5.60309 45.8402 6.72814 43.9664 6.90809 41.8044C6.92194 41.632 6.9836 41.5137 7.16607 41.5237C7.61911 41.5476 8.16654 41.335 8.49121 41.6282C8.67998 41.7981 8.26973 42.2373 8.15143 42.5645C7.31834 44.8649 6.51294 47.1754 5.82457 49.5237C5.73774 49.8207 5.62322 49.9377 5.31616 49.9327C4.54096 49.9176 3.76576 49.9176 2.99182 49.9327C2.70112 49.9389 2.60925 49.8081 2.52745 49.5501C1.71324 47.0005 0.888957 44.4546 0.0483163 41.9126C-0.0599098 41.5854 0.00552925 41.5086 0.327691 41.5137C1.16581 41.525 2.00268 41.5162 2.8408 41.5162C3.0346 41.5162 3.24728 41.5099 3.25357 41.7792C3.28252 43.1949 3.94446 44.4408 4.31696 45.7634C4.51957 46.4858 4.75741 47.1993 4.9789 47.9166Z" fill="#E1232A"/>
<path d="M25.0258 44.3564C26.536 44.3564 28.0625 44.33 29.5864 44.3665C30.4258 44.3866 30.8059 44.8535 30.8147 45.7118C30.8184 46.0679 30.821 46.4228 30.8071 46.7789C30.7958 47.0835 30.7228 47.4031 30.3994 47.4912C29.9187 47.6221 30.0823 47.8511 30.2308 48.1255C30.5366 48.6892 30.8273 49.2618 31.1746 49.925C30.3629 49.925 29.6607 49.9175 28.9585 49.9288C28.6854 49.9326 28.6879 49.735 28.6237 49.5613C28.4287 49.0328 28.221 48.508 28.0146 47.9833C27.914 47.7265 27.7541 47.5478 27.4471 47.6082C27.1337 47.6699 27.2382 47.9291 27.2357 48.1166C27.2319 48.5961 27.1727 49.0806 27.2936 49.5538C27.364 49.8319 27.2822 49.9376 26.9953 49.9326C26.3485 49.9225 25.7016 49.9301 25.0535 49.9301C25.1592 48.0588 25.1995 46.2214 25.0258 44.3564ZM28.0562 46.5851C28.4614 46.6556 28.7169 46.5725 28.7143 45.9496C28.7118 45.2021 28.3091 45.2549 27.7881 45.2159C27.0469 45.1606 27.2785 45.6564 27.2218 46.0314C27.1211 46.716 27.5893 46.5839 28.0562 46.5851Z" fill="#990833"/>
<path d="M34.356 49.9275C33.8526 49.9275 33.3505 49.935 32.8471 49.9262C31.9448 49.9099 31.4326 49.443 31.4024 48.5407C31.371 47.5994 31.3748 46.6543 31.41 45.7129C31.4414 44.8547 31.8328 44.4268 32.6911 44.3853C33.8199 44.3312 34.9538 44.3349 36.0839 44.3664C36.771 44.3865 37.2089 44.8182 37.263 45.606C37.336 46.6694 37.331 47.7416 37.2945 48.8075C37.2731 49.4304 36.7156 49.8822 36.0537 49.9224C35.7617 49.9401 35.4672 49.9275 35.174 49.9275C34.9009 49.9275 34.6278 49.9275 34.356 49.9275ZM33.5116 47.0947C33.5116 47.5339 33.5393 47.9744 33.5053 48.4098C33.4512 49.0956 33.9848 49.0088 34.3485 49.0214C34.7059 49.034 35.2067 49.0805 35.213 48.4765C35.2218 47.578 35.2357 46.6794 35.2092 45.7822C35.1891 45.1051 34.6505 45.2448 34.2302 45.231C33.8111 45.2171 33.4776 45.2977 33.5066 45.8413C33.5305 46.2578 33.5116 46.6769 33.5116 47.0947Z" fill="#990833"/>
<path d="M21.6595 44.3477C22.2661 44.3477 22.8739 44.3401 23.4805 44.3502C23.8869 44.3565 24.1714 44.8032 24.0354 45.1783C23.975 45.3444 23.8643 45.3242 23.7372 45.3028C22.9255 45.1644 22.1075 45.2802 21.2946 45.2336C20.883 45.211 20.7157 45.4148 20.7132 45.7886C20.7081 46.6884 20.7069 47.5882 20.7169 48.488C20.7232 49.0669 21.1385 49.0543 21.5576 49.0568C21.9691 49.0593 22.1981 48.9133 22.1755 48.4729C22.1679 48.3269 22.1553 48.1771 22.178 48.0337C22.2573 47.529 21.9993 47.3982 21.5651 47.4737C21.2631 47.5265 21.0341 47.5555 21.0567 47.115C21.0731 46.7866 21.0756 46.555 21.5173 46.5714C22.3328 46.6016 23.1495 46.5802 23.9662 46.5802C24.2079 46.5802 24.3173 46.5827 24.2532 46.93C24.0883 47.8147 24.1185 48.7208 24.2406 49.6118C24.2771 49.8773 24.2594 49.9616 24.0078 49.9339C23.5207 49.8798 23.0035 50.1 22.548 49.7754C22.402 49.6709 22.3265 49.832 22.2157 49.8471C21.2392 49.9868 20.2589 49.9855 19.2861 49.8446C18.9211 49.7917 18.6996 49.5073 18.6657 49.1411C18.5474 47.8474 18.5486 46.5487 18.6581 45.2563C18.7122 44.6233 19.2118 44.3968 19.7769 44.3703C20.4036 44.3401 21.0328 44.364 21.6608 44.364C21.6595 44.3578 21.6595 44.3527 21.6595 44.3477Z" fill="#990833"/>
<path d="M12.9511 45.8402C12.9348 47.0193 12.7837 48.2023 13.0493 49.3751C13.1411 49.7841 13.1424 49.9666 12.6327 49.9414C12.152 49.9175 11.9506 49.9805 12.0136 49.277C12.1495 47.7442 12.1973 46.1837 11.9695 44.6446C11.933 44.3942 11.9972 44.3439 12.2036 44.3439C12.9788 44.3451 13.7553 44.359 14.5305 44.3439C14.8451 44.3376 14.9042 44.5629 14.9961 44.7667C15.4151 45.6803 15.8241 46.599 16.247 47.5114C16.359 47.7517 16.4206 48.0248 16.6321 48.2136C16.8548 48.1129 16.7667 47.9179 16.7629 47.7719C16.734 46.7072 16.8384 45.6413 16.7189 44.5792C16.7 44.4093 16.7743 44.3489 16.9215 44.3477C17.1732 44.3439 17.4249 44.3439 17.6766 44.3464C17.82 44.3477 17.9585 44.4018 17.8628 44.5641C17.4488 45.2726 17.6892 46.0415 17.6539 46.7815C17.6111 47.6599 17.6288 48.542 17.6501 49.4217C17.659 49.7879 17.5683 49.9289 17.1669 49.9389C15.0754 49.9905 15.0754 50.0018 14.1844 48.0777C13.8345 47.3214 13.4885 46.5638 13.1399 45.8075C13.077 45.8175 13.014 45.8288 12.9511 45.8402Z" fill="#E1232A"/>
<path d="M47.2223 49.8834C46.4924 49.8985 45.6907 50.1476 45.1962 49.862C44.6802 49.565 45.1131 48.7168 45.0729 48.1127C45.0062 47.1349 45.0754 46.1483 45.0477 45.1667C45.025 44.3487 44.9999 44.35 45.8392 44.35C46.9681 44.35 48.0981 44.3399 49.227 44.3525C50.2815 44.3651 50.6113 44.7061 50.6125 45.7355C50.6125 46.0904 50.6176 46.4466 50.6138 46.8014C50.605 47.5125 50.2753 47.8913 49.5617 47.929C48.8947 47.9642 48.2227 47.9668 47.5558 47.9366C47.1304 47.9177 47.0083 48.08 47.0297 48.479C47.0524 48.9383 47.0109 49.4001 47.2223 49.8834ZM47.0448 46.0879C46.9316 46.6567 47.0008 47.0292 47.7659 46.955C48.555 46.8782 48.6078 46.887 48.6116 46.0174C48.6141 45.2498 48.5877 45.2825 47.7244 45.2133C46.9744 45.1541 46.9517 45.543 47.0448 46.0879Z" fill="#990833"/>
<path d="M43.9906 44.3489C43.7175 45.3003 43.8786 46.2013 43.8396 47.0911C43.8169 47.6133 43.8396 48.1381 43.8044 48.6604C43.7553 49.4104 43.1927 49.9226 42.444 49.9263C41.4599 49.9314 40.4758 49.9188 39.4917 49.9301C38.8499 49.9377 38.4811 49.6168 38.3049 49.024C38.1149 48.3898 38.1678 47.7392 38.1577 47.0911C38.1451 46.2982 38.2458 45.4979 38.0394 44.7164C37.9677 44.4458 38.0268 44.3338 38.3276 44.3439C38.8926 44.3615 39.4577 44.3602 40.0227 44.3477C40.3109 44.3414 40.3726 44.4496 40.3386 44.7252C40.1914 45.9346 40.3134 47.1515 40.2643 48.3634C40.248 48.7887 40.4154 48.9284 40.8256 49.0014C42.6529 49.3235 42.8353 49.1927 42.8303 47.3969C42.8278 46.5185 42.8479 45.6363 42.7812 44.7617C42.7523 44.3816 42.8655 44.3288 43.1739 44.3477C43.4243 44.3602 43.6747 44.3489 43.9906 44.3489Z" fill="#990833"/>
<path d="M8.86869 47.0658C8.86869 46.2906 8.8926 45.5154 8.85611 44.7427C8.84101 44.4306 8.90519 44.3098 9.21351 44.3438C9.23364 44.3463 9.25503 44.3438 9.27643 44.3438C9.86286 44.3476 10.5915 44.1424 10.9917 44.418C11.3415 44.6584 10.9552 45.4261 10.9942 45.971C11.0823 47.1992 10.8872 48.44 11.1138 49.6645C11.154 49.8835 11.081 49.925 10.9049 49.93C10.8633 49.9313 10.8205 49.9288 10.779 49.9288C10.1724 49.9225 9.3985 50.1389 9.00335 49.847C8.5868 49.5386 8.93665 48.7257 8.88505 48.1342C8.85485 47.7806 8.88002 47.4232 8.88002 47.0671C8.87624 47.0658 8.87247 47.0658 8.86869 47.0658Z" fill="#E1232A"/>
<path d="M18.2882 26.0927C19.0936 26.0273 19.8902 26.0625 20.6755 25.8863C22.2045 25.544 22.582 24.5952 21.6784 23.3166C20.4754 21.6152 18.7954 20.4775 17.0373 19.4393C15.3522 18.4439 13.5665 17.6838 11.6524 17.1527C12.5409 16.7148 16.1501 17.1766 18.1988 17.9606C20.2954 18.7635 22.1793 19.9024 23.8681 21.439C23.6819 20.996 23.4881 20.5556 23.3119 20.1088C22.4637 17.9619 21.9377 15.7571 22.1353 13.4265C22.3895 10.4351 23.8581 8.17498 26.3322 6.55033C29.1007 4.73188 32.238 4.04854 35.4647 3.66724C34.6379 3.95542 33.7834 4.18446 32.9893 4.54437C29.6972 6.03437 28.1166 9.02695 28.6326 12.7016C28.9913 15.2575 29.9653 17.6259 30.8613 20.0169C31.4704 21.6441 32.0946 23.265 32.3287 25.0054C32.5854 26.912 31.8341 28.3994 30.2044 29.0513C29.321 29.4049 28.3948 29.3118 27.4761 29.1847C24.2205 28.7354 21.2229 27.5261 18.2882 26.0927Z" fill="#FBED03"/>
<path d="M17.4715 32.0526C18.5978 32.8215 19.3051 32.3143 19.85 31.2598C20.079 31.6889 20.0085 32.0249 19.9884 32.3345C19.9582 32.8039 20.0803 33.0858 20.5925 33.16C20.8454 33.1965 21.1185 33.2531 21.3349 33.4356C21.2582 33.6433 21.0568 33.6344 20.9171 33.6785C20.2388 33.8912 19.777 34.2423 19.8424 35.0452C19.8525 35.1685 19.7367 35.6417 19.5631 35.3459C19.0421 34.4575 18.3059 34.5531 17.4589 34.7582C17.5621 34.1882 18.1435 33.8735 18.0945 33.4507C18.0441 33.0228 17.6603 32.634 17.4237 32.2275C17.4388 32.1709 17.4552 32.1117 17.4715 32.0526Z" fill="#F9E508"/>
<path d="M12.4906 28.7202C12.5951 28.7819 12.7134 28.8284 12.8002 28.9102C13.3338 29.4086 13.89 29.5269 14.5104 29.06C14.5972 28.9946 14.7306 28.8826 14.8363 29.0034C14.8867 29.0613 14.8879 29.216 14.8477 29.2941C14.4437 30.0768 14.6589 30.6821 15.3536 31.1666C15.4102 31.2069 15.4341 31.295 15.5486 31.4875C14.4903 31.2988 13.7314 31.5316 13.5502 32.707C13.101 32.2464 13.3224 31.5228 12.8505 31.339C12.4415 31.1792 11.9205 31.3063 11.3656 31.222C12.2578 30.5903 12.8631 29.883 12.2666 28.7039C12.3409 28.7089 12.4164 28.7152 12.4906 28.7202Z" fill="#F9E508"/>
<path d="M32.6092 31.6133C32.764 31.6007 32.8458 31.6699 32.9037 31.7555C33.3391 32.3986 33.8991 32.6666 34.6692 32.3822C34.7863 32.3394 34.9851 32.2715 35.0518 32.4464C35.0833 32.5294 34.975 32.6666 34.926 32.7761C34.9096 32.8139 34.8819 32.8478 34.8517 32.8768C34.3144 33.3915 34.3458 33.9011 34.8454 34.4259C34.9537 34.5392 35.0103 34.7028 35.2104 35.0514C34.1004 34.4725 33.2837 34.4712 32.9527 35.7359C32.6482 35.488 32.6658 35.2175 32.6721 34.996C32.691 34.3265 32.433 33.9301 31.7346 33.8646C31.576 33.8495 31.425 33.7728 31.2073 33.7048C31.5521 33.2669 32.141 33.321 32.4267 32.9724C32.7388 32.5911 32.399 32.0412 32.6092 31.6133Z" fill="#F9E508"/>
<path d="M24.8799 36.437C25.5293 35.3937 25.3619 34.5619 24.3313 33.8572C25.6149 34.1718 26.1824 33.574 26.3523 32.5471C26.5663 32.5496 26.6028 32.6327 26.6141 32.712C26.7374 33.5073 27.0495 34.0887 27.9996 34.0019C28.0865 33.9943 28.2299 34.0585 28.2639 34.129C28.3356 34.2762 28.1846 34.3492 28.0814 34.4033C27.3968 34.7595 27.3326 35.322 27.5239 35.9877C27.5567 36.0997 27.5642 36.2545 27.5088 36.3451C27.4434 36.4533 27.315 36.3703 27.2458 36.2985C26.5537 35.5825 25.8854 35.697 25.2248 36.3438C25.1857 36.3791 25.109 36.3753 24.8799 36.437Z" fill="#F9E508"/>
<path d="M41.2459 31.2384C41.0055 31.2648 40.9288 31.2786 40.852 31.2799C39.8415 31.3 39.8427 31.3 39.4828 32.2501C39.4413 32.3596 39.4501 32.522 39.294 32.5383C39.2387 32.5446 39.1305 32.4628 39.1166 32.4049C38.8851 31.4158 38.1325 31.3705 37.2717 31.4787C37.4542 30.9212 38.1073 30.7677 38.13 30.2933C38.1501 29.8604 37.94 29.4161 37.7713 28.7391C38.7378 29.6036 39.5382 29.4489 40.3134 28.5818C40.3751 29.25 39.8641 29.7282 40.1032 30.1637C40.3209 30.555 40.779 30.8155 41.2459 31.2384Z" fill="#F9E508"/>
</svg>
