<svg width="64" height="50" viewBox="0 0 64 50" fill="none" xmlns="http://www.w3.org/2000/svg">
<path d="M59.6153 0C61.9148 2.18791 61.525 4.82075 60.7947 7.47054C59.5998 11.8026 56.8257 14.8846 53.0798 17.242C50.4399 18.903 47.5218 19.855 44.6234 20.8861C42.4765 21.6489 40.3196 22.389 38.28 23.4215C37.3097 23.9131 36.3859 24.478 35.65 25.2902C34.7079 26.3284 34.3251 27.5502 34.6246 28.9372C34.7729 29.6265 35.2192 30.0968 35.8859 30.3384C36.037 30.3935 36.2291 30.4062 36.3605 30.2918C36.5427 30.1321 36.3393 29.9965 36.2842 29.8638C36.0554 29.3129 36.1571 28.8412 36.6246 28.481C37.0201 28.1759 37.4608 28.1702 37.8718 28.457C38.3521 28.7931 38.4961 29.255 38.3069 29.8186C38.006 30.7127 37.3026 31.0954 36.4466 31.2268C35.4848 31.3751 34.6825 31.0234 34.0977 30.2522C32.9649 28.755 33.1641 26.5798 34.5638 24.8481C35.7856 23.3368 37.4438 22.4455 39.1769 21.6997C41.5499 20.6785 43.9751 19.7788 46.341 18.742C49.4074 17.3974 52.3199 15.7843 54.8341 13.523C57.7509 10.9 59.1916 7.59907 59.5108 3.73032C59.6139 2.47888 59.4769 1.24297 59.4727 0.00141247C59.5221 0 59.5687 0 59.6153 0Z" fill="#B49050"/>
<path d="M3.99818 0.127197C4.00101 1.29389 3.87106 2.36172 3.93321 3.44226C4.21429 8.39295 6.45587 12.201 10.4645 15.0485C13.6933 17.3423 17.2627 18.9469 20.9421 20.3467C23.2501 21.2238 25.5736 22.0896 27.568 23.5911C29.0737 24.7253 30.1133 26.1759 30.1062 28.1604C30.1034 29.111 29.7573 29.9627 29.0596 30.6266C27.9508 31.6817 25.9931 31.4515 25.3165 30.2014C25.0114 29.6379 24.9408 29.0672 25.4634 28.5912C25.8745 28.2169 26.3618 28.176 26.8222 28.5051C27.3688 28.8963 27.4437 29.4246 27.1316 29.9952C26.9154 30.3893 27.1838 30.378 27.4253 30.3822C27.9946 30.3921 28.6782 29.7579 28.8421 28.9952C29.2121 27.279 28.5892 25.9047 27.2869 24.8086C25.6923 23.4668 23.7713 22.7394 21.856 22.0218C19.2825 21.0585 16.6511 20.2365 14.1171 19.18C10.4885 17.6686 7.22143 15.5739 4.93747 12.2801C3.14646 9.70231 2.06451 6.84065 2.15774 3.63435C2.20152 2.10889 2.85267 0.843318 3.99818 0.127197Z" fill="#B49050"/>
<path d="M35.6191 27.6728C35.677 26.7222 36.29 26.0895 36.9426 25.5273C38.7505 23.9693 40.9497 23.201 43.2055 22.5978C46.1999 21.7984 49.2339 21.1176 52.0461 19.7715C55.2467 18.239 58.0194 16.14 60.2144 13.3222C60.7949 12.5764 61.2695 11.7685 61.6466 10.9026C61.8161 10.5114 62.0195 10.1399 62.3401 9.85174C62.4927 9.71332 62.6664 9.53252 62.8952 9.63422C63.1085 9.73027 63.0252 9.96615 63.0308 10.1399C63.0902 12.0693 62.391 13.736 61.165 15.1753C58.6861 18.0836 55.4699 19.8873 51.9345 21.1741C48.9471 22.2617 45.8058 22.7687 42.7422 23.5753C40.6333 24.1304 38.6107 24.8564 36.9496 26.3352C36.4807 26.7533 36.0541 27.2194 35.6092 27.6644L35.6191 27.6728Z" fill="#B49050"/>
<path d="M0.425917 10.5753C0.514902 10.2829 0.233821 9.78291 0.615187 9.66002C0.990903 9.53855 1.23102 10.0018 1.46973 10.2843C1.55871 10.3903 1.62793 10.5188 1.68866 10.6459C3.96556 15.4511 7.96707 18.3199 12.6861 20.3397C15.3924 21.4979 18.2894 22.0699 21.1115 22.8722C22.6977 23.3228 24.2076 23.9683 25.6158 24.844C26.4096 25.3398 26.993 26.022 27.4958 26.7918C27.5792 26.9189 27.6456 27.0588 27.5368 27.1732C27.397 27.3215 27.2797 27.1774 27.195 27.0786C25.2994 24.8624 22.6666 24.1138 19.9914 23.4245C16.8797 22.6222 13.689 22.1095 10.6917 20.892C7.42892 19.5671 4.45286 17.8114 2.1802 15.0528C1.12226 13.7689 0.500777 12.29 0.425917 10.5753Z" fill="#B49050"/>
<path d="M31.6245 27.2917C31.2078 25.649 30.4324 24.4555 29.1923 23.5854C28.979 23.4356 29.0383 23.3001 29.1386 23.115C30.4903 20.598 30.8307 17.814 31.2276 15.0512C31.4268 13.6628 31.5299 12.2602 31.7135 10.8633C31.8915 11.5893 31.9197 12.3266 31.9833 13.0667C32.085 14.2476 32.3293 15.4157 32.5045 16.5908C32.7432 18.194 33.0511 19.7816 33.5017 21.341C33.6585 21.8833 33.8308 22.43 34.1373 22.9017C34.3986 23.3043 34.3252 23.5133 33.9636 23.817C32.9127 24.6942 32.1824 25.8157 31.6245 27.2917Z" fill="#B49050"/>
<path d="M24.9068 26.1546C24.7133 26.2832 24.5989 26.269 24.4887 26.2154C22.0282 25.0105 19.3657 24.7817 16.6919 24.5458C13.3514 24.252 9.98693 24.05 6.79194 22.8777C5.39501 22.365 4.03621 21.7816 3.04325 20.6008C2.6859 20.1757 2.46414 19.6954 2.44013 19.1304C2.41894 18.653 2.6181 18.5414 3.04184 18.7321C3.43027 18.9073 3.79468 19.1163 4.12379 19.3861C6.7538 21.5359 9.83015 22.5542 13.148 23.0232C16.1425 23.4455 19.1666 23.7591 22.0423 24.7718C22.8022 25.0388 23.5819 25.2874 24.274 25.7224C24.4831 25.8524 24.6808 25.9978 24.9068 26.1546Z" fill="#B49050"/>
<path d="M38.4496 26.1997C39.3013 25.5316 40.2378 25.1785 41.1813 24.8324C44.8467 23.4892 48.7535 23.3705 52.5291 22.588C54.9387 22.088 57.1069 21.0696 59.0603 19.5795C59.4516 19.2814 59.8711 19.0216 60.2892 18.7631C60.4657 18.6529 60.6889 18.5413 60.8866 18.6698C61.1225 18.8238 61.042 19.0992 61.0109 19.3196C60.9234 19.9495 60.5858 20.4552 60.138 20.8917C58.9021 22.0979 57.33 22.653 55.7354 23.1587C53.1859 23.9666 50.5347 24.1545 47.8976 24.4214C45.7309 24.6403 43.5486 24.7194 41.4243 25.2731C40.653 25.4737 39.9214 25.7647 39.194 26.0796C38.9835 26.1672 38.7886 26.3311 38.4496 26.1997Z" fill="#B49050"/>
<path d="M0.0290947 36.4713C-0.0189292 36.4925 0.00225783 36.477 0.0234448 36.4741C0.887874 36.3908 1.71417 36.2467 2.00231 37.4699C2.15627 38.1239 2.63651 38.7016 3.04047 39.4446C3.45856 38.3739 4.27921 37.6648 4.37949 36.5999C4.40492 36.34 4.57441 36.4614 4.67046 36.4572C5.13799 36.4417 5.60692 36.4501 6.01372 36.4501C6.01372 38.114 6.01372 39.7355 6.01372 41.3839C5.61257 41.3839 5.1733 41.3839 4.73967 41.3839C4.94165 40.3499 4.80182 39.3273 4.71566 38.2722C4.13231 39.2736 3.54896 40.2751 2.92748 41.3401C2.35684 40.3076 1.81869 39.333 1.28054 38.3584C1.15907 39.3768 1.02206 40.3725 1.22263 41.3853C0.811601 41.3853 0.392099 41.3853 0.0276822 41.3853C0.0290947 39.7426 0.0290947 38.1225 0.0290947 36.4713Z" fill="#0A0A0A"/>
<path d="M19.6313 36.4755C19.6511 36.4698 19.6737 36.4557 19.6949 36.4571C20.298 36.4995 20.839 36.3032 21.3432 37.0772C21.9577 38.0207 22.9874 38.6945 23.849 39.4925C23.7995 38.5335 23.9803 37.5207 23.7232 36.4854C24.1074 36.4854 24.5227 36.4854 24.9267 36.4854C24.8108 38.0942 24.8758 39.7044 24.8772 41.4106C24.6202 41.4106 24.2586 41.4092 23.8984 41.412C23.6964 41.4135 23.5467 41.4233 23.6004 41.114C23.6215 40.9911 23.4097 40.8103 23.2769 40.6832C22.4464 39.8922 21.6088 39.1097 20.7218 38.2764C20.7528 39.2835 20.6229 40.3244 20.8319 41.388C20.4308 41.388 20.0113 41.388 19.6327 41.388C19.6313 39.7482 19.6313 38.1252 19.6313 36.4755Z" fill="#0A0A0A"/>
<path d="M15.8585 41.5067C14.8105 41.5067 13.9037 41.1903 13.35 40.2426C12.8528 39.3894 12.8542 38.4911 13.3486 37.6309C14.0393 36.4317 15.8726 35.9995 17.2978 36.6789C17.4235 36.7396 17.5521 36.8032 17.6636 36.8865C17.8783 37.0476 17.9447 36.8823 18.0266 36.7396C18.1439 36.5362 18.0846 36.4586 17.8501 36.4331C17.367 36.3809 17.3246 36.0306 17.3939 35.6534C17.4504 35.3455 17.6834 35.241 17.9716 35.2735C18.3755 35.3187 18.5069 35.6125 18.5394 35.9642C18.5549 36.1252 18.5916 36.3427 18.5083 36.4458C18.0323 37.0348 18.3289 37.5391 18.5464 38.1323C19.1933 39.8894 17.8755 41.5025 15.8585 41.5067ZM15.8359 37.2453C14.7992 37.2453 14.1169 37.9332 14.1268 38.9685C14.1367 39.953 14.826 40.6366 15.8204 40.6508C16.8444 40.6635 17.5634 39.9629 17.5676 38.9487C17.5718 37.919 16.8854 37.2439 15.8359 37.2453Z" fill="#0A0A0A"/>
<path d="M40.7165 26.2507C41.9821 25.714 43.3423 25.4894 44.7223 25.4174C46.413 25.3298 48.1065 25.3143 49.7987 25.2592C51.6575 25.1985 53.5036 25.0501 55.2974 24.5021C55.7678 24.358 56.2607 24.2888 56.7607 24.334C57.3017 24.3835 57.3356 24.6391 57.0333 25.0177C56.6364 25.5134 56.0926 25.7889 55.505 25.9824C54.1236 26.4386 52.6872 26.5389 51.2563 26.4838C49.2379 26.4061 47.2209 26.2479 45.2068 26.0798C43.8635 25.9668 42.533 25.9541 41.2066 26.2253C41.047 26.2578 40.8804 26.2437 40.7165 26.2507Z" fill="#B49050"/>
<path d="M27.1909 47.9321C27.6641 48.6073 28.0666 49.2669 28.7206 49.9435C28.1612 49.9435 27.7107 49.9435 27.2587 49.9435C27.1174 49.9435 27.0751 49.8799 27.0496 49.7358C26.9381 49.1115 26.4649 48.6878 26.1315 48.192C25.8222 47.733 25.3038 47.9166 24.8914 47.9703C24.4479 48.0268 24.6583 48.4604 24.6386 48.7316C24.6103 49.1214 24.575 49.524 24.8208 49.8799C24.3801 50.0014 23.9097 50.0649 23.6032 49.9025C23.2515 49.7147 23.5736 49.233 23.5453 48.8785C23.4507 47.6426 23.6484 46.3968 23.4323 45.1623C23.38 44.8642 23.6244 44.9532 23.7544 44.9518C24.7643 44.949 25.777 44.9207 26.7841 44.9786C27.8562 45.0408 28.3039 45.3897 28.4226 46.103C28.5779 47.0211 28.3166 47.425 27.1909 47.9321ZM25.8745 45.7513C25.8745 45.7583 25.8731 45.7668 25.8731 45.7739C25.5934 45.7739 25.3123 45.7837 25.0326 45.771C24.7275 45.7569 24.5821 45.9038 24.6371 46.1891C24.6965 46.4956 24.3999 46.9985 24.9126 47.0663C25.5524 47.1524 26.2163 47.1581 26.8646 47.038C27.1768 46.9801 27.3703 46.781 27.3816 46.4632C27.3929 46.1114 27.1866 45.8883 26.8477 45.8332C26.527 45.7837 26.1993 45.7781 25.8745 45.7513Z" fill="#B49050"/>
<path d="M22.5594 26.2692C20.2853 25.9033 18.0437 26.111 15.8021 26.272C14.2809 26.3807 12.7639 26.5912 11.2342 26.5234C10.0844 26.4726 8.93611 26.3793 7.84428 25.9697C7.29059 25.7621 6.7595 25.5064 6.40497 25.0008C6.14649 24.6321 6.17051 24.3934 6.69877 24.3976C7.14511 24.4019 7.59568 24.3637 8.0279 24.4993C10.4828 25.2705 13.0252 25.2931 15.5592 25.3426C17.7485 25.3864 19.9152 25.5968 22.0692 25.9683C22.2444 25.998 22.4534 25.9881 22.5594 26.2692Z" fill="#B49050"/>
<path d="M52.9091 38.378C52.9091 39.2552 52.9091 40.2905 52.9091 41.3668C52.5518 41.3668 52.145 41.3668 51.7692 41.3668C51.7692 39.7481 51.7692 38.1337 51.7692 36.4712C51.7283 36.498 51.7608 36.4585 51.7933 36.4585C52.4416 36.4557 52.9868 36.3511 53.5052 37.1111C54.1323 38.032 55.1549 38.6831 55.9473 39.3978C55.9332 38.5659 56.0278 37.5348 55.8795 36.4783C56.2538 36.4783 56.6719 36.4783 57.0236 36.4783C56.9064 38.0857 56.9812 39.7015 56.9657 41.4092C56.7666 41.4092 56.4021 41.4148 56.0377 41.4064C55.8767 41.4021 55.6705 41.4784 55.7312 41.1352C55.7552 40.9982 55.5165 40.7919 55.3654 40.6507C54.5264 39.8639 53.6775 39.0885 52.9091 38.378Z" fill="#0A0A0A"/>
<path d="M8.35143 36.4811C8.21584 37.6577 8.15369 38.8272 8.37403 39.9685C8.51387 40.6945 9.24129 40.6578 9.82605 40.6422C10.3487 40.6267 10.9631 40.5589 11.0281 39.9092C11.1411 38.7778 11.1185 37.6351 11.0266 36.4642C11.2625 36.4642 11.5394 36.4642 11.8035 36.4642C11.8388 36.3921 11.8826 36.3384 11.8713 36.3187C11.6877 36.0122 11.6298 35.7014 11.8868 35.4133C12.0676 35.2099 12.3176 35.2169 12.5366 35.3314C12.877 35.5093 12.9095 35.8441 12.9066 36.1845C12.9038 36.532 12.7922 36.8625 12.5352 37.0701C12.11 37.4133 12.0846 37.8441 12.1001 38.3272C12.1185 38.8668 12.0945 39.4091 12.0789 39.9487C12.0563 40.7129 11.634 41.1648 10.9207 41.3541C10.0619 41.5815 9.19609 41.5773 8.34013 41.3442C7.62684 41.1493 7.21863 40.6832 7.21016 39.9191C7.20168 39.073 7.1918 38.2255 7.19603 37.3794C7.19745 37.0772 7.19038 36.7834 7.00111 36.4811C7.50113 36.4811 7.963 36.4811 8.35143 36.4811Z" fill="#0A0A0A"/>
<path d="M62.0476 36.4812C62.5702 36.4812 63.0307 36.4812 63.4191 36.4812C63.4191 38.1183 63.4191 39.7313 63.4191 41.3768C63.0505 41.3768 62.614 41.3768 62.1465 41.3768C62.0293 41.2158 62.2425 41.1169 62.2609 40.9757C62.4812 39.357 62.4007 39.2567 60.7905 39.2567C59.3978 39.2567 59.3992 39.2567 59.4232 40.6579C59.4275 40.8881 59.4091 41.1198 59.6012 41.3684C59.0899 41.3684 58.6393 41.3684 58.1831 41.3684C58.3851 40.8514 58.3738 37.0279 58.1647 36.4572C58.5941 36.4572 59.1167 36.3061 59.4091 36.501C59.6803 36.6818 59.4374 37.2355 59.4021 37.6098C59.3343 38.3174 59.5913 38.5039 60.2538 38.4276C60.7637 38.3697 61.2877 38.3895 61.8033 38.4248C62.1959 38.4502 62.299 38.2864 62.2595 37.9389C62.2044 37.4629 62.3965 36.9615 62.0476 36.4812Z" fill="#0A0A0A"/>
<path d="M31.1655 36.7254C30.9212 37.2212 30.7488 37.5687 30.568 37.9345C29.9282 37.272 28.8208 37.0489 28.0129 37.3822C27.3052 37.6746 26.9465 38.2594 26.9761 39.0532C27.003 39.7382 27.3476 40.2156 27.9578 40.4741C28.6655 40.775 29.3802 40.6733 30.0906 40.4289C30.3971 40.323 30.3816 40.1026 30.3689 39.8653C30.3519 39.5532 30.1048 39.6761 29.9437 39.6549C29.8053 39.6365 29.6514 39.6167 29.5228 39.6563C28.6188 39.9289 28.7078 39.3936 28.7996 38.8229C29.6697 39.0856 30.5384 38.8597 31.4042 38.9755C31.1909 39.4487 31.1669 39.9713 31.3294 40.4247C31.4353 40.7185 31.383 40.775 31.1712 40.8795C30.1584 41.3823 29.1019 41.6634 27.9691 41.4318C26.5298 41.1365 25.7755 40.1521 25.8546 38.7184C25.9239 37.4754 26.9027 36.5418 28.2799 36.4133C28.9649 36.3497 29.6386 36.3864 30.2926 36.6393C30.5313 36.7311 30.7658 36.8766 31.1655 36.7254Z" fill="#0A0A0A"/>
<path d="M40.6517 41.3939C40.1742 41.3939 39.7533 41.3939 39.3635 41.3939C39.3635 39.7569 39.3635 38.1382 39.3635 36.4856C39.735 36.4856 40.17 36.4856 40.6192 36.4856C40.7378 36.6198 40.5613 36.7144 40.5443 36.8345C40.3367 38.3472 40.396 38.4602 41.9257 38.391C42.3946 38.3698 43.1164 38.8303 43.3339 38.0676C43.4709 37.5845 43.4512 37.0054 43.2322 36.4729C43.6941 36.4729 44.1376 36.4729 44.5006 36.4729C44.4611 38.1114 44.43 39.7286 44.5289 41.3756C44.5458 41.3671 44.5077 41.4024 44.4695 41.4024C44.0712 41.3982 43.6743 41.3883 43.276 41.3784C43.3057 41.0281 43.3565 40.6792 43.3608 40.3289C43.3721 39.2569 43.365 39.2569 42.3028 39.2569C42.2562 39.2569 42.2054 39.2442 42.163 39.2583C41.6361 39.4306 40.8508 38.8529 40.5853 39.5662C40.396 40.0803 40.4511 40.7541 40.6517 41.3939Z" fill="#0A0A0A"/>
<path d="M32.0822 49.9915C30.7149 49.9929 29.8123 49.4505 29.383 48.37C28.9903 47.3798 29.2332 46.2273 30.0694 45.5479C31.1231 44.6933 32.3195 44.6891 33.5201 45.1905C34.4735 45.5888 34.9693 46.5324 34.9099 47.6609C34.8379 49.0423 33.6882 49.9901 32.0822 49.9915ZM32.0836 49.137C33.109 49.1313 33.7997 48.4293 33.7856 47.4053C33.7715 46.4222 33.0822 45.7484 32.0836 45.74C31.0539 45.7315 30.3618 46.4165 30.3604 47.442C30.359 48.4858 31.0271 49.1426 32.0836 49.137Z" fill="#B49050"/>
<path d="M21.5608 46.4165C20.7994 45.7413 19.9972 45.5958 19.1356 45.8458C18.3686 46.0676 17.9434 46.7018 17.9561 47.4899C17.9689 48.2781 18.4251 48.8756 19.2146 49.0677C19.8206 49.216 20.4251 49.1595 21.0198 48.9518C21.2924 48.8572 21.3687 48.6821 21.3461 48.4137C21.3192 48.0775 21.0735 48.1566 20.8771 48.1481C20.6653 48.1383 20.4449 48.1086 20.2443 48.1566C19.9096 48.2371 19.7486 48.2145 19.7528 47.7978C19.757 47.4066 19.8714 47.3529 20.2345 47.425C20.5749 47.4913 20.9379 47.4405 21.2896 47.4419C21.6413 47.4419 21.993 47.4419 22.3998 47.4419C22.2204 47.8981 22.1088 48.3755 22.2755 48.7569C22.4887 49.2456 22.2628 49.3501 21.9125 49.5055C21.1257 49.8544 20.315 50.0324 19.4491 49.9942C17.9406 49.9264 16.8657 48.9476 16.8375 47.5832C16.8078 46.0789 17.7796 45.0435 19.3234 44.8924C20.1935 44.8077 20.9944 45.052 21.8079 45.2907C22.0579 45.3642 22.0396 45.456 21.9534 45.6283C21.8291 45.8797 21.7048 46.1311 21.5608 46.4165Z" fill="#B49050"/>
<path d="M51.0361 41.4107C50.8708 41.4107 50.6632 41.4163 50.457 41.4093C50.0149 41.3937 49.4739 41.6155 49.4767 40.7821C49.4781 40.3358 49.1137 40.0674 48.5812 40.1465C48.2366 40.1974 47.8722 40.1974 47.5261 40.1479C46.8651 40.0519 46.5896 40.5604 46.6419 40.9643C46.7125 41.5124 46.4639 41.4107 46.1687 41.4107C45.8693 41.4093 45.5684 41.4107 45.2972 41.4107C45.9978 39.9488 46.6603 38.5151 47.3806 37.1111C47.5063 36.8668 47.1433 36.5419 47.4781 36.4769C47.9089 36.3936 48.3665 36.4543 48.8129 36.46C48.8581 36.46 48.9202 36.4402 48.9343 36.5589C49.1589 38.3696 50.3849 39.7242 51.0361 41.4107ZM47.3058 39.4474C48.923 39.5166 48.923 39.5166 48.2888 38.1606C48.238 38.0533 48.1773 37.9516 48.0812 37.7722C47.8044 38.3682 47.5727 38.8711 47.3058 39.4474Z" fill="#0A0A0A"/>
<path d="M41.9638 47.6283C41.9638 46.9489 42.0584 46.2511 41.9384 45.5929C41.8169 44.922 42.1192 44.922 42.5895 44.9432C43.5486 44.9841 44.5133 44.874 45.4695 45.0138C46.3382 45.1409 46.7888 45.648 46.7803 46.4644C46.7718 47.2709 46.3015 47.7822 45.4257 47.867C44.8212 47.9263 44.2096 47.9432 43.6008 47.9334C43.1969 47.9277 43.0514 48.0788 43.0839 48.4687C43.1051 48.7243 43.0302 49.0012 43.0994 49.2385C43.2929 49.9052 42.9864 49.9857 42.4214 49.9602C41.9751 49.9405 41.8451 49.8868 41.9398 49.3797C42.0443 48.8161 41.9624 48.2144 41.9638 47.6283ZM44.2463 45.7426C44.2449 45.7539 44.2435 45.7652 44.2435 45.7765C43.961 45.7765 43.6785 45.768 43.3974 45.7779C42.9751 45.7949 43.0782 46.1311 43.0994 46.357C43.1234 46.6184 42.8904 47.0576 43.3777 47.0887C43.9836 47.1268 44.5994 47.1749 45.204 47.0407C45.5317 46.9672 45.6588 46.7426 45.6517 46.4178C45.6447 46.1212 45.5161 45.9093 45.2223 45.8542C44.9003 45.7963 44.5712 45.7779 44.2463 45.7426Z" fill="#B49050"/>
<path d="M39.6247 45.014C39.7081 44.99 39.773 44.9589 39.8408 44.9547C40.7378 44.8925 40.7321 44.894 40.7236 45.7895C40.7152 46.5875 40.7321 47.3856 40.718 48.1836C40.6982 49.2867 40.2321 49.8263 39.129 49.9492C38.5724 50.0113 37.999 50.0127 37.4439 49.9506C36.304 49.8249 35.8435 49.2938 35.7899 48.1469C35.7447 47.1652 35.876 46.1779 35.7164 45.2005C35.6797 44.9773 35.7814 44.9589 35.9255 44.9533C36.2066 44.9434 36.489 44.9448 36.7701 44.9505C37.0145 44.9561 36.982 45.0183 36.9608 45.2753C36.8831 46.2542 36.8761 47.2443 36.9297 48.2246C36.9679 48.9308 37.5145 49.1949 38.5597 49.1328C39.3253 49.0862 39.6826 48.7726 39.7081 48.089C39.7264 47.5734 39.7208 47.0564 39.7137 46.5409C39.7038 46.0338 39.7646 45.5211 39.6247 45.014Z" fill="#B49050"/>
<path d="M53.5219 27.286C53.0755 28.1434 52.3764 28.392 51.6221 28.5149C49.8481 28.8059 48.1743 28.303 46.4991 27.827C44.7872 27.3397 43.112 26.6702 41.2772 26.786C42.4143 26.44 43.5541 26.5798 44.6912 26.7394C47.3099 27.1067 49.9074 27.7282 52.584 27.3934C52.8623 27.3595 53.1391 27.3298 53.5219 27.286Z" fill="#B49050"/>
<path d="M35.5385 41.3767C35.8817 40.8315 35.7009 40.2694 35.7249 39.7312C35.7546 39.0504 35.7334 38.3682 35.7306 37.6874C35.7306 37.5052 35.7729 37.2693 35.4806 37.2891C34.9297 37.3258 34.3548 37.1393 33.811 37.4741C33.811 37.0899 33.811 36.7198 33.811 36.3738C35.4311 36.5136 37.0399 36.4698 38.6854 36.402C38.6854 36.6647 38.6854 37.0292 38.6854 37.4402C38.184 37.1704 37.6388 37.3201 37.1063 37.2848C36.9467 37.2735 36.821 37.3286 36.821 37.5094C36.8182 38.7891 36.8196 40.0674 36.8196 41.3782C36.4905 41.3767 36.0371 41.3767 35.5385 41.3767Z" fill="#0A0A0A"/>
<path d="M10.0563 27.392C11.3671 27.4202 12.6666 27.5883 13.9901 27.4555C15.6285 27.2917 17.2401 26.9823 18.8673 26.7592C19.921 26.6151 20.9719 26.6264 22.0326 26.7507C19.4648 26.7888 17.1709 27.9979 14.6963 28.4315C13.6511 28.6152 12.5988 28.7719 11.5536 28.488C10.9292 28.3185 10.2668 28.1448 10.0648 27.3835L10.0563 27.392Z" fill="#B49050"/>
<path d="M16.216 36.0347C15.3672 36.2847 15.4576 35.3129 14.9194 35.1251C15.9547 34.6491 15.9901 35.4542 16.216 36.0347Z" fill="#0A0A0A"/>
<path d="M35.6091 27.6631C35.5992 27.7055 35.5893 27.7492 35.5794 27.7916C35.5597 27.7747 35.5399 27.7577 35.5215 27.7394C35.554 27.7168 35.5879 27.6942 35.6204 27.673C35.619 27.673 35.6091 27.6631 35.6091 27.6631Z" fill="#B49050"/>
<path d="M10.0649 27.3853L10.0335 27.3567L10.0564 27.3924L10.0649 27.3853Z" fill="#B49050"/>
</svg>
