<svg width="50" height="50" viewBox="0 0 50 50" fill="none" xmlns="http://www.w3.org/2000/svg">
<path d="M22.1614 4.56806C20.5471 4.56443 18.9324 4.59114 17.3195 4.54814C15.6908 4.50468 14.1385 4.11402 12.7303 3.26479C11.876 2.74964 11.1694 2.08239 10.7715 1.13946C10.7249 1.029 10.6828 0.914476 10.6574 0.797231C10.575 0.411096 10.8426 0.0661535 11.2355 0.0426141C11.3106 0.0380873 11.3862 0.0412561 11.4618 0.0412561C18.0176 0.0412561 24.5728 0.0408034 31.1285 0.0412561C31.5282 0.0412561 31.9252 -0.00899139 32.3263 0.00142025C35.0021 0.0729437 37.5131 0.714391 39.7806 2.17383C42.2898 3.78854 44.1127 5.98132 45.2105 8.75851C46.1113 11.0373 46.3431 13.3971 46.0027 15.8217C45.727 17.7859 45.0611 19.6025 43.9919 21.2701C42.8543 23.0446 41.3781 24.4765 39.5719 25.5633C37.8531 26.5977 35.9894 27.1993 33.9967 27.4221C33.2217 27.509 32.4467 27.499 31.6699 27.499C23.2057 27.4967 14.7415 27.4967 6.27775 27.499C5.84952 27.499 5.48918 27.379 5.24881 27.0069C4.99259 26.6099 4.99033 26.1858 5.19766 25.7784C5.40272 25.3759 5.76215 25.1894 6.21664 25.1894C12.2291 25.1899 18.2416 25.1899 24.2537 25.1899C24.4017 25.1899 24.5497 25.1899 24.7625 25.1899C24.2473 24.8182 23.7906 24.4792 23.3623 24.1039C22.7883 23.6005 22.2596 23.0537 21.7829 22.4584C21.6553 22.2995 21.5213 22.2461 21.3235 22.2466C19.2792 22.2524 17.2349 22.2506 15.1906 22.2493C14.684 22.2488 14.273 21.9704 14.1191 21.5318C13.9421 21.027 14.0838 20.4861 14.4803 20.181C14.6962 20.0149 14.943 19.942 15.2182 19.9424C16.7419 19.946 18.2661 19.9442 19.7898 19.9429C19.8939 19.9429 19.9998 19.9592 20.1144 19.9157C19.9722 19.5898 19.8242 19.2702 19.6925 18.9438C18.8419 16.8416 18.5372 14.6619 18.7577 12.4048C18.9283 10.6571 19.4172 9.00658 20.2262 7.44936C20.4412 7.03561 20.7775 6.82602 21.2452 6.82602C22.6634 6.82693 24.0817 6.82738 25.4999 6.82557C25.6606 6.82557 25.8068 6.85092 25.8706 7.01977C25.9299 7.17594 25.886 7.30813 25.7679 7.43035C24.7064 8.53217 23.9694 9.82684 23.5556 11.294C23.1306 12.8018 23.0966 14.3301 23.4574 15.8579C23.8938 17.7062 24.8096 19.2847 26.2188 20.5572C28.1875 22.3348 30.5115 23.1777 33.1552 22.9301C36.735 22.5951 39.3225 20.74 40.8199 17.488C41.9842 14.9598 41.9172 12.3718 40.7312 9.84902C39.7095 7.6757 38.0514 6.14112 35.8305 5.23168C34.7681 4.79666 33.6554 4.57168 32.502 4.57711C32.435 4.57213 32.3675 4.56353 32.3001 4.56353C28.9806 4.56172 25.6611 4.56081 22.3411 4.55991C22.2813 4.55991 22.2211 4.56534 22.1614 4.56806Z" fill="#E91F27"/>
<path d="M39.4751 13.7203C39.4932 17.5468 36.3878 20.5807 32.7215 20.678C28.7619 20.7835 25.5647 17.5514 25.5782 13.7199C25.5918 9.93863 28.6877 6.78979 32.4277 6.78346C36.3525 6.77757 39.4674 9.84312 39.4751 13.7203ZM30.1331 12.1423C30.1331 12.1368 30.1331 12.1314 30.1331 12.1255C29.6732 12.1255 29.2133 12.1269 28.7533 12.1246C28.6044 12.1237 28.479 12.1622 28.4333 12.317C28.3858 12.4764 28.4632 12.5895 28.5908 12.6823C29.2916 13.1911 29.991 13.7018 30.6895 14.2133C30.9692 14.4184 30.9819 14.4745 30.871 14.8027C30.5989 15.6089 30.3296 16.4156 30.0607 17.2227C30.0118 17.3689 29.9701 17.5237 30.1168 17.6378C30.273 17.7591 30.4097 17.6772 30.5464 17.579C31.2558 17.0683 31.9701 16.5654 32.6767 16.0507C32.8573 15.919 33.0026 15.9167 33.1837 16.0521C33.889 16.5804 34.6029 17.0973 35.3131 17.6188C35.4412 17.7125 35.5757 17.7827 35.7251 17.674C35.8767 17.5636 35.841 17.416 35.7925 17.2648C35.5295 16.4473 35.2701 15.6284 35.008 14.8108C34.903 14.4831 34.9111 14.4532 35.1968 14.2477C35.8998 13.7411 36.601 13.2323 37.3072 12.7308C37.4385 12.6375 37.5163 12.5334 37.4774 12.3731C37.4339 12.1952 37.2886 12.1817 37.1379 12.1803C36.2556 12.1735 35.3738 12.159 34.4915 12.1617C34.2588 12.1627 34.1353 12.0871 34.0651 11.8585C33.8071 11.016 33.5309 10.179 33.2657 9.33883C33.2168 9.18492 33.1615 9.05817 32.966 9.0627C32.7808 9.06677 32.7315 9.19217 32.6844 9.33476C32.4092 10.1718 32.1285 11.007 31.856 11.8449C31.7886 12.0522 31.6749 12.1522 31.445 12.1454C31.0081 12.1328 30.5704 12.1423 30.1331 12.1423Z" fill="#E91F27"/>
<path d="M7.87617 43.7788C8.05045 44.1333 8.18535 44.4769 8.41803 44.7675C8.52033 44.8952 8.41033 44.9771 8.33519 45.0509C7.92596 45.4542 7.45608 45.772 6.92735 45.9961C6.52809 46.1654 6.11479 46.3066 5.68429 46.3564C5.36515 46.3931 5.03787 46.3555 4.71465 46.3646C3.76221 46.3913 2.90031 46.1101 2.13302 45.5651C1.28515 44.9626 0.671315 44.1618 0.284274 43.1944C0.161145 42.8862 0.132626 42.5507 0.0552181 42.2298C-0.0484455 41.7975 0.0289627 41.3656 0.0117609 40.9351C0.000896551 40.6594 0.0787575 40.3742 0.151639 40.1026C0.401518 39.1728 0.887696 38.3784 1.58482 37.7165C2.36932 36.9714 3.30818 36.5613 4.38374 36.4554C5.2126 36.3739 6.02697 36.4585 6.80196 36.7537C7.27954 36.9357 7.71954 37.2145 8.10658 37.5567C8.97618 38.3263 9.55833 39.2638 9.78014 40.4177C9.88833 40.9804 9.85709 41.5553 9.95714 42.1171C10.1513 43.2094 10.6991 44.0944 11.6411 44.6679C12.6311 45.27 13.7221 45.3818 14.8221 44.9893C15.411 44.7793 15.9144 44.4325 16.3345 43.9314C16.7455 43.4416 17.0393 42.9187 17.1661 42.3045C17.3005 41.6535 17.2942 41.0007 17.1036 40.3543C16.8003 39.3263 16.1471 38.5902 15.2286 38.0678C14.3155 37.5486 13.3595 37.511 12.3817 37.8329C11.762 38.037 11.2599 38.4273 10.8313 38.9139C10.6547 39.1144 10.6583 39.114 10.5515 38.8781C10.4913 38.7446 10.4148 38.6178 10.3573 38.4829C10.2826 38.3082 10.1943 38.1665 9.96845 38.224C9.90825 38.2394 9.86162 38.2077 9.83808 38.1629C9.81183 38.1135 9.86796 38.0859 9.89602 38.0556C10.4818 37.4327 11.1373 36.9171 11.9756 36.6699C13.0403 36.3562 14.1005 36.3372 15.1648 36.6727C16.0402 36.9488 16.7514 37.4535 17.3345 38.1593C17.9773 38.9374 18.3589 39.8125 18.4748 40.8224C18.5893 41.8201 18.4318 42.7621 18.0053 43.6571C17.7224 44.2505 17.3023 44.7512 16.8184 45.1966C16.1416 45.82 15.3363 46.1776 14.4346 46.3066C13.642 46.4198 12.8507 46.4143 12.0702 46.1817C11.3378 45.9635 10.6932 45.6027 10.164 45.0522C9.23828 44.0894 8.69733 42.9518 8.64844 41.6024C8.61992 40.8079 8.47416 40.0515 8.03551 39.3652C7.0034 37.7505 5.00256 37.1702 3.32266 38.0135C1.94018 38.7075 1.08461 40.3199 1.27881 41.8658C1.48886 43.5367 2.57393 44.7965 4.14292 45.1106C5.5589 45.3945 6.7834 45.0156 7.75168 43.9097C7.78608 43.8716 7.8232 43.835 7.87617 43.7788Z" fill="#050607"/>
<path d="M39.0473 41.4918C37.7051 41.4923 36.3624 41.4928 35.0202 41.4914C34.9003 41.4914 34.7975 41.4796 34.8093 41.6602C34.8935 42.921 35.3837 43.9671 36.4557 44.6783C37.4987 45.3704 38.6236 45.3758 39.7729 44.982C40.6719 44.6737 41.3012 44.0472 41.7869 43.2514C41.9906 42.9178 41.9268 42.9757 42.2477 43.1296C42.4446 43.2238 42.6284 43.346 42.8281 43.4338C42.9774 43.4995 42.9679 43.5733 42.9032 43.6932C42.0341 45.2984 40.724 46.2382 38.8739 46.35C37.7761 46.4165 36.7096 46.2839 35.7753 45.6506C34.4838 44.7756 33.7604 43.5348 33.5812 41.9921C33.4087 40.5082 33.8242 39.1832 34.7871 38.0451C35.8183 36.8261 37.1673 36.3571 38.7363 36.4418C41.1817 36.5735 43.0503 38.3991 43.2685 40.8748C43.3228 41.4918 43.3228 41.4918 42.7122 41.4918C41.4904 41.4914 40.2686 41.4914 39.0473 41.4918ZM38.4312 40.4416C38.4312 40.4421 38.4312 40.4425 38.4312 40.4425C39.5248 40.4425 40.6185 40.4412 41.7127 40.4439C41.8616 40.4443 41.9557 40.4389 41.9005 40.2388C41.5927 39.1298 40.9454 38.3113 39.8589 37.893C38.653 37.4286 37.4796 37.4915 36.3819 38.2212C35.6553 38.7042 35.262 39.4226 34.9949 40.228C34.9401 40.3927 34.9564 40.4475 35.1501 40.4457C36.2434 40.4371 37.3375 40.4416 38.4312 40.4416Z" fill="#E91F27"/>
<path d="M9.08719 11.3818C10.5118 11.3818 11.9364 11.3818 13.3609 11.3818C13.9091 11.3818 14.3279 11.6471 14.484 12.0934C14.6674 12.6167 14.5257 13.1418 14.1024 13.4763C13.9128 13.6262 13.686 13.6864 13.4474 13.6868C10.5303 13.6886 7.61326 13.6909 4.69619 13.6873C4.07285 13.6864 3.61836 13.1884 3.61836 12.5325C3.61791 11.8689 4.07376 11.3859 4.7229 11.3836C6.17782 11.3782 7.63273 11.3818 9.08719 11.3818Z" fill="#E91F27"/>
<path d="M24.1816 43.5243C24.565 42.6814 24.9304 41.8802 25.2943 41.0785C25.9362 39.6661 26.5786 38.2538 27.2178 36.8401C27.2707 36.7228 27.3386 36.6644 27.4735 36.6689C27.7822 36.6789 28.0919 36.6861 28.4006 36.6753C28.5848 36.6689 28.6011 36.7165 28.5278 36.8745C28.0271 37.9546 27.5328 39.0383 27.0371 40.1211C26.1684 42.0183 25.3006 43.9159 24.432 45.8135C24.4098 45.8615 24.3876 45.9095 24.3654 45.957C24.3224 46.0489 24.2744 46.1295 24.1513 46.1245C24.0331 46.12 24.0092 46.0267 23.9725 45.9471C23.6289 45.201 23.2885 44.4541 22.944 43.7086C21.9549 41.5683 20.9644 39.4285 19.9753 37.2882C19.9029 37.1311 19.8395 36.9695 19.7671 36.8124C19.7227 36.716 19.7445 36.6712 19.8531 36.6717C20.1998 36.6739 20.5471 36.6794 20.8938 36.6748C21.0391 36.673 21.0604 36.7844 21.1025 36.8758C21.5982 37.95 22.0911 39.0256 22.5864 40.0998C23.0848 41.1813 23.585 42.2613 24.0852 43.3419C24.1069 43.3885 24.1332 43.4333 24.1816 43.5243Z" fill="#E91F27"/>
<path d="M47.8423 41.9136C47.8423 43.2336 47.8378 44.5536 47.8473 45.8732C47.8486 46.0755 47.7893 46.1375 47.5933 46.1267C47.3376 46.1122 47.08 46.1122 46.8242 46.1271C46.6454 46.1375 46.6115 46.0633 46.6128 45.9049C46.6187 45.1281 46.6156 44.3513 46.6156 43.5745C46.6156 41.6963 46.6133 39.8186 46.6192 37.9404C46.6196 37.7811 46.578 37.7295 46.4182 37.7331C45.9958 37.7426 45.5735 37.7331 45.1512 37.7403C45.0058 37.743 44.9475 37.6951 44.9524 37.5457C44.9597 37.3347 44.9579 37.1229 44.9461 36.9124C44.9357 36.7309 44.9896 36.6611 45.1874 36.6688C45.6016 36.6856 46.0167 36.6693 46.4313 36.6765C46.5762 36.6788 46.6205 36.6371 46.6192 36.4846C46.611 35.4588 46.6178 34.433 46.611 33.4073C46.6097 33.2289 46.6459 33.1488 46.846 33.1633C47.1008 33.1823 47.3588 33.1764 47.6146 33.1651C47.7916 33.1574 47.8464 33.2185 47.845 33.3973C47.8373 34.3855 47.8419 35.3733 47.8419 36.3615C47.8419 36.6729 47.8419 36.6734 48.1646 36.6738C48.6245 36.6743 49.0849 36.6811 49.5448 36.6697C49.7168 36.6652 49.7711 36.725 49.7644 36.8884C49.7553 37.1066 49.7553 37.3257 49.763 37.5443C49.7684 37.6892 49.72 37.7412 49.5693 37.739C49.0718 37.7317 48.5734 37.7471 48.0763 37.7344C47.884 37.7295 47.8364 37.7906 47.8373 37.9762C47.8446 39.2885 47.8409 40.6008 47.8409 41.9131C47.8419 41.9136 47.8419 41.9136 47.8423 41.9136Z" fill="#E91F27"/>
<path d="M8.69462 45.187C9.01557 45.6134 9.351 45.938 9.70681 46.2413C9.7987 46.3196 9.78376 46.4066 9.76928 46.4935C9.7059 46.8737 9.6036 47.2418 9.44471 47.5958C9.08437 48.3997 8.50178 48.9846 7.73041 49.4011C7.04279 49.7723 6.30401 49.942 5.53536 49.9873C4.7726 50.0321 4.02115 49.9561 3.27015 49.7868C1.91709 49.4821 0.982762 48.6831 0.366212 47.4717C0.146663 47.0408 0.149379 47.0394 0.627409 47.039C0.876383 47.039 1.12581 47.0467 1.37433 47.0358C1.50153 47.0304 1.56853 47.0919 1.62195 47.187C1.84693 47.5872 2.14796 47.9217 2.52097 48.1852C2.93653 48.4785 3.396 48.6532 3.90164 48.7619C4.40638 48.8705 4.90523 48.8796 5.40726 48.8592C6.54484 48.813 7.49049 48.3567 8.19757 47.4536C8.38363 47.216 8.4384 46.9095 8.52124 46.6225C8.65025 46.1748 8.66248 45.7126 8.69462 45.187Z" fill="#050607"/>
<path d="M31.4993 41.3909C31.4993 42.8915 31.4956 44.3917 31.5038 45.8924C31.5047 46.0829 31.4499 46.1382 31.2643 46.1273C31.009 46.1124 30.7514 46.116 30.4957 46.1287C30.3178 46.1373 30.2671 46.0757 30.2675 45.8973C30.2739 44.1631 30.2716 42.4289 30.2712 40.6947C30.2712 39.4281 30.2743 38.1615 30.2657 36.8949C30.2644 36.708 30.3277 36.664 30.4998 36.6726C30.7632 36.6858 31.028 36.6876 31.291 36.6731C31.4658 36.6636 31.5033 36.7252 31.5024 36.8904C31.4965 38.3901 31.4993 39.8903 31.4993 41.3909Z" fill="#E91F27"/>
<path d="M31.8759 33.7991C31.8723 34.3853 31.4509 34.7923 30.8484 34.7909C30.3002 34.7896 29.876 34.3505 29.8769 33.7851C29.8778 33.2255 30.3214 32.7869 30.8868 32.7874C31.4477 32.7878 31.8791 33.2292 31.8759 33.7991Z" fill="#E91F27"/>
</svg>
