<svg width="16" height="13" viewBox="0 0 16 13" fill="none" xmlns="http://www.w3.org/2000/svg">
<g clip-path="url(#clip0)">
<path d="M15.9984 3.23556C15.9984 3.14657 15.9862 3.05758 15.977 2.93311C15.8595 3.00232 15.7843 3.04362 15.7131 3.08957C13.3176 4.64779 10.9181 6.20077 8.53128 7.77237C8.15576 8.01957 7.86182 8.02888 7.48167 7.77819C5.08676 6.20136 2.67912 4.64372 0.275531 3.08026C0.205518 3.03489 0.129719 2.99883 0.0296174 2.94358C0.0151519 3.02035 0.0047367 3.04827 0.0047367 3.07677C0.00415808 5.70521 -0.00799294 8.33308 0.0105229 10.9615C0.0174663 11.9776 0.907963 12.8455 1.8893 12.846C5.92055 12.8495 9.95179 12.8501 13.9825 12.8455C15.1582 12.8443 15.9961 11.991 15.9984 10.801C16.0024 8.27898 15.9995 5.75756 15.9984 3.23556Z" fill="#D9E8ED"/>
<path d="M0.271483 1.85527C2.77517 3.47747 5.27539 5.10548 7.77213 6.73873C7.94746 6.85332 8.07244 6.84169 8.23908 6.73001C8.88887 6.29494 9.54734 5.87267 10.2035 5.44633C12.0493 4.2464 13.8934 3.04414 15.7426 1.85003C15.9324 1.72789 15.9729 1.60458 15.9064 1.39344C15.646 0.569837 14.8973 0.000990957 14.0438 0.000409315C12.0377 -0.00075397 10.0316 -0.000172327 8.02557 0.000409315C6.0004 0.000409315 3.97523 -0.0024989 1.94948 0.00215424C1.09717 0.00389917 0.372163 0.559367 0.103683 1.37657C0.0301981 1.59934 0.0724373 1.72614 0.271483 1.85527Z" fill="#D9E8ED"/>
</g>
<defs>
<clipPath id="clip0">
<rect width="16" height="12.8485" fill="white"/>
</clipPath>
</defs>
</svg>
