<svg width="24" height="24" viewBox="0 0 24 24" fill="none" xmlns="http://www.w3.org/2000/svg">
<path d="M0 13.266C0 12.422 0 11.578 0 10.734C0.0819392 10.6685 0.0819392 10.6685 0.0901332 10.5538C0.172072 9.80813 0.327757 9.07887 0.565381 8.366C2.03209 3.84295 5.85866 0.680096 10.5784 0.0901332C10.6357 0.0819392 10.734 0.122909 10.734 0C11.578 0 12.422 0 13.266 0C13.3315 0.0819392 13.3315 0.0819392 13.4462 0.0901332C14.1919 0.172072 14.9211 0.327757 15.634 0.565381C20.1571 2.03209 23.3199 5.86685 23.9099 10.5784C23.9181 10.6357 23.8771 10.734 24 10.734C24 11.578 24 12.422 24 13.266C23.9181 13.3315 23.9181 13.3315 23.9099 13.4462C23.8279 14.1919 23.6722 14.9211 23.4346 15.634C21.9679 20.1571 18.1332 23.3199 13.4216 23.9099C13.3643 23.9181 13.266 23.8771 13.266 24C12.422 24 11.578 24 10.734 24C10.6685 23.9181 10.6685 23.9181 10.5538 23.9099C9.80813 23.8279 9.07887 23.6722 8.366 23.4346C3.84295 21.9679 0.680096 18.1332 0.0901332 13.4216C0.0819392 13.3643 0.122909 13.266 0 13.266ZM11.9631 6.37487C10.1441 6.42404 8.27586 6.40765 6.41584 6.6043C5.1212 6.7436 4.45749 7.36634 4.26084 8.66098C4.13793 9.48037 4.08057 10.308 4.05599 11.1355C4.00683 12.6432 4.0478 14.1509 4.3182 15.6422C4.49027 16.5845 5.1212 17.1909 6.04712 17.3383C6.46501 17.4039 6.88289 17.4531 7.30079 17.4776C9.81632 17.6333 12.3237 17.6497 14.8392 17.5678C15.8634 17.535 16.8877 17.5022 17.8955 17.3465C18.8051 17.2072 19.4278 16.6582 19.649 15.7651C19.7555 15.3554 19.7965 14.9375 19.8375 14.5196C20.0178 12.5367 20.0096 10.562 19.7228 8.58723C19.5917 7.67771 19.1492 7.014 18.2315 6.7354C17.8955 6.62888 17.5432 6.6043 17.1909 6.57153C15.4783 6.41584 13.7412 6.40765 11.9631 6.37487Z" fill="white"/>
<path d="M11.9632 6.37451C13.7412 6.40729 15.4783 6.41548 17.2073 6.56297C17.5596 6.59575 17.9119 6.62033 18.2479 6.72685C19.1574 7.00544 19.6081 7.66915 19.7392 8.57868C20.026 10.5534 20.0342 12.5281 19.8539 14.5111C19.8129 14.929 19.7638 15.3469 19.6654 15.7566C19.4442 16.6497 18.8215 17.2069 17.9119 17.338C16.8959 17.4937 15.8717 17.5264 14.8556 17.5592C12.3401 17.6412 9.82454 17.6248 7.3172 17.4691C6.89931 17.4445 6.47323 17.3953 6.06353 17.3298C5.13762 17.1823 4.50669 16.5678 4.33462 15.6336C4.05602 14.1424 4.02325 12.6347 4.07241 11.127C4.09699 10.2994 4.15435 9.47181 4.27726 8.65242C4.47391 7.35778 5.13762 6.73504 6.43226 6.59575C8.27589 6.40729 10.1441 6.42368 11.9632 6.37451ZM10.3817 9.63569C10.3817 11.2335 10.3817 12.7822 10.3817 14.3636C11.7747 13.5688 13.1349 12.7985 14.536 11.9955C13.1267 11.2007 11.7665 10.4223 10.3817 9.63569Z" fill="#527682"/>
<path d="M10.3817 9.63623C11.7665 10.4228 13.1349 11.2013 14.5361 11.9961C13.1349 12.7909 11.7747 13.5693 10.3817 14.3641C10.3817 12.7827 10.3817 11.234 10.3817 9.63623Z" fill="white"/>
</svg>
