<svg width="24" height="24" viewBox="0 0 24 24" fill="none" xmlns="http://www.w3.org/2000/svg">
<path d="M11.9995 23.9998C8.83469 24.0172 5.78927 22.7568 3.51623 20.4889C2.4046 19.3912 1.52005 18.0733 0.915775 16.6145C0.311504 15.1556 0 13.586 0 12C0 10.414 0.311504 8.84432 0.915775 7.38548C1.52005 5.92664 2.4046 4.60873 3.51623 3.51104C5.78927 1.24318 8.83469 -0.0171905 11.9995 0.000177137C15.1652 -0.0162307 18.2111 1.24568 20.4838 3.51523C21.5954 4.61293 22.48 5.93083 23.0842 7.38967C23.6885 8.84852 24 10.4182 24 12.0042C24 13.5902 23.6885 15.1598 23.0842 16.6187C22.48 18.0775 21.5954 19.3954 20.4838 20.4931C18.2098 22.7596 15.1641 24.0185 11.9995 23.9998ZM9.4594 9.93434V12.1509H10.6613V18.439H13.2054V12.1509H14.911L15.1349 9.93434H13.2014V8.62432C13.1941 8.53389 13.2067 8.44295 13.2383 8.35823C13.2698 8.2735 13.3194 8.19717 13.3835 8.1349C13.4834 8.05592 13.6068 8.01516 13.7326 8.01961H15.1024V5.85965L13.2156 5.84602C12.6507 5.82371 12.0933 5.98464 11.6219 6.3061C11.2688 6.56763 11.0006 6.93293 10.8526 7.35412C10.7216 7.71709 10.657 8.10193 10.6623 8.48913V9.93434H9.4594Z" fill="white"/>
</svg>
