<svg width="24" height="24" viewBox="0 0 24 24" fill="none" xmlns="http://www.w3.org/2000/svg">
<path d="M11.9995 23.9998C8.83469 24.0172 5.78927 22.7568 3.51623 20.4889C2.4046 19.3912 1.52005 18.0733 0.915775 16.6145C0.311504 15.1556 0 13.586 0 12C0 10.414 0.311504 8.84432 0.915775 7.38548C1.52005 5.92664 2.4046 4.60873 3.51623 3.51104C5.78927 1.24318 8.83469 -0.0171905 11.9995 0.000177137C15.1652 -0.0162307 18.2111 1.24568 20.4838 3.51523C21.5954 4.61293 22.48 5.93083 23.0842 7.38967C23.6885 8.84852 24 10.4182 24 12.0042C24 13.5902 23.6885 15.1598 23.0842 16.6187C22.48 18.0775 21.5954 19.3954 20.4838 20.4931C18.2098 22.7596 15.1641 24.0184 11.9995 23.9998ZM5.2829 16.5893C5.90076 16.9961 6.57214 17.3095 7.2765 17.5199C8.00349 17.7404 8.75751 17.8519 9.51537 17.8511C10.6725 17.8607 11.818 17.613 12.8737 17.1248C13.8098 16.6744 14.6452 16.0293 15.3273 15.23C15.9742 14.4655 16.4832 13.5882 16.8303 12.6393C17.1614 11.7298 17.3337 10.7672 17.3392 9.796V9.44073C17.8792 9.03175 18.3461 8.52926 18.7191 7.95568C18.2125 8.1887 17.6751 8.34304 17.1245 8.41367C17.4087 8.23674 17.6605 8.0097 17.8684 7.74294C18.0782 7.47324 18.237 7.16538 18.3365 6.83535C17.7975 7.17025 17.2058 7.40541 16.5881 7.53019C16.3318 7.24537 16.021 7.01833 15.6753 6.86338C15.3295 6.70844 14.9563 6.62895 14.5793 6.62994C14.0961 6.62826 13.6215 6.76193 13.2064 7.01666C12.7907 7.26664 12.4448 7.62295 12.202 8.05105C11.9572 8.48195 11.8299 8.97294 11.8336 9.47217C11.8334 9.68964 11.8542 9.9066 11.8957 10.1198C10.7887 10.0608 9.70669 9.75967 8.72159 9.23636C7.75729 8.72543 6.90573 8.01508 6.22017 7.14976C5.97823 7.58184 5.85149 8.0721 5.85279 8.57087C5.8501 9.04229 5.96354 9.50672 6.18251 9.92072C6.39676 10.3301 6.70446 10.6797 7.07908 10.9394C6.63664 10.9309 6.20364 10.8061 5.82124 10.5768V10.625C5.83045 11.0617 5.93258 11.491 6.12044 11.8826C6.30674 12.2723 6.57723 12.6129 6.91116 12.8782C7.2397 13.1401 7.62298 13.3195 8.0306 13.4022C7.7954 13.4657 7.55324 13.4978 7.31009 13.4976C7.13943 13.4981 6.96909 13.4823 6.80126 13.4504C6.97003 14.0104 7.30848 14.5 7.76702 14.8475C8.22695 15.2068 8.78461 15.4087 9.3617 15.4249C8.87862 15.8043 8.34044 16.1028 7.76702 16.3094C7.18034 16.5194 6.56343 16.6257 5.94235 16.6238C5.71337 16.6259 5.49763 16.6155 5.28595 16.5945L5.2829 16.5893Z" fill="white"/>
</svg>
