<svg width="24" height="24" viewBox="0 0 24 24" fill="none" xmlns="http://www.w3.org/2000/svg">
<path d="M12.001 23.9937C8.81963 23.9948 5.76806 22.7302 3.51748 20.4778C1.26691 18.2255 0.00165694 15.17 0 11.9833C0.0470759 8.80161 1.337 5.76508 3.59315 3.5249C5.84929 1.28473 8.892 0.0192996 12.0687 0C15.2399 0.0340062 18.27 1.31775 20.5031 3.57327C22.7362 5.82879 23.9925 8.87456 24 12.0511C24.0031 15.1774 22.7819 18.1803 20.5986 20.4145C18.4154 22.6487 15.4444 23.9361 12.3239 24C12.2163 24 12.1087 23.9979 12.001 23.9937ZM5.32407 3.91515C4.84424 3.96464 4.39618 4.17852 4.05557 4.52064C3.71495 4.86276 3.50268 5.31216 3.45461 5.79292C3.33934 7.09954 3.31359 8.41254 3.37754 9.72268C3.35879 12.3272 3.35879 14.9311 3.37754 17.5342C3.38587 19.146 4.21073 20.1537 5.59278 20.161C9.86287 20.185 14.133 20.1766 18.403 20.1725C18.7873 20.179 19.1656 20.076 19.4937 19.8757C19.8219 19.6753 20.0866 19.3857 20.2569 19.0406C20.862 17.9452 20.5329 16.7695 20.6204 15.5052C19.4602 16.6714 18.0083 17.5037 16.4168 17.9148C14.8252 18.3259 13.1526 18.3008 11.574 17.842C10.8088 17.6135 9.99158 17.6296 9.23589 17.8879C8.33103 18.2387 7.33976 18.2996 6.39889 18.0621C6.75924 17.7846 7.05711 17.5864 7.31852 17.3496C8.17358 16.5745 8.1892 16.2208 7.43621 15.38C6.13484 14.0003 5.43339 12.1597 5.48592 10.2624C5.53845 8.36505 6.34066 6.56618 7.71637 5.26089C8.26973 4.75378 8.86635 4.29615 9.49939 3.89325C8.60371 3.89325 7.75907 3.86925 6.93942 3.86925C6.39264 3.86925 5.85836 3.87968 5.32407 3.91515ZM11.4803 12.0678C11.5662 12.227 11.6835 12.367 11.825 12.4795C11.9665 12.592 12.1293 12.6745 12.3036 12.7221C12.4779 12.7697 12.66 12.7813 12.839 12.7564C13.0179 12.7314 13.1899 12.6704 13.3446 12.5769C13.4758 12.5049 13.5685 12.5602 13.6924 12.6019C14.2132 12.7803 14.4517 12.6291 14.4704 12.0803C14.4902 11.4471 14.4839 10.8128 14.4704 10.1796C14.461 9.69139 14.2152 9.45771 13.7341 9.64235C13.661 9.67497 13.5818 9.69183 13.5018 9.69183C13.4218 9.69183 13.3427 9.67497 13.2696 9.64235C13.0246 9.54592 12.7585 9.51638 12.4984 9.55675C12.2383 9.59711 11.9936 9.70594 11.7892 9.8721C11.5849 10.0383 11.4283 10.2558 11.3354 10.5025C11.2425 10.7491 11.2167 11.0161 11.2605 11.276C11.2897 11.5201 11.4293 11.7548 11.3324 12.0063C11.3866 12.0271 11.4563 12.0323 11.4813 12.0678H11.4803ZM17.673 9.49318C17.4615 9.49708 17.253 9.54396 17.0601 9.63099C16.8673 9.71801 16.6941 9.84335 16.551 9.99943C16.4079 10.1555 16.298 10.339 16.2279 10.5389C16.1578 10.7388 16.1289 10.9509 16.143 11.1623C16.1267 11.3742 16.1556 11.5872 16.2276 11.7871C16.2997 11.987 16.4133 12.1693 16.561 12.3219C16.7088 12.4745 16.8871 12.5939 17.0844 12.6722C17.2817 12.7505 17.4933 12.7859 17.7053 12.7761C17.9219 12.7833 18.1377 12.7454 18.339 12.6649C18.5403 12.5844 18.7228 12.463 18.875 12.3083C19.0271 12.1537 19.1456 11.9691 19.223 11.7663C19.3005 11.5635 19.3351 11.3468 19.3248 11.13C19.3324 10.9142 19.2958 10.6992 19.2173 10.4981C19.1388 10.297 19.02 10.1142 18.8683 9.96086C18.7166 9.80752 18.5351 9.68691 18.3351 9.60648C18.1351 9.52605 17.9207 9.48749 17.7053 9.49318H17.673ZM14.8703 8.84639C14.8755 9.37425 14.8703 9.90316 14.8703 10.431C14.8703 10.9808 14.8703 11.5306 14.8703 12.0803C14.8703 12.4142 14.9495 12.6896 15.3452 12.677C15.6931 12.6666 15.792 12.4215 15.792 12.1074C15.7879 11.0086 15.7879 9.90941 15.792 8.80988C15.792 8.49691 15.6879 8.23924 15.3473 8.23507H15.339C14.9682 8.24133 14.8662 8.51152 14.8703 8.84639ZM10.6315 12.6666C11.1116 12.6833 11.3491 12.4987 11.3262 12.0094C10.9923 11.7936 10.5898 11.7113 10.1982 11.7788C9.8938 11.8121 9.5858 11.7845 9.29213 11.6975C9.89099 10.9245 10.4794 10.2088 11.0189 9.45666C11.4074 8.91628 11.222 8.58663 10.5544 8.57202C9.88682 8.55742 9.24423 8.57202 8.59017 8.57202C8.29439 8.57202 8.00798 8.61793 8.0236 8.9987C8.03714 9.33774 8.3121 9.3586 8.57767 9.37842C8.71089 9.38546 8.84439 9.38546 8.9776 9.37842C9.27882 9.34741 9.58315 9.38303 9.86912 9.48274L8.16837 11.663C8.01215 11.8644 7.83614 12.0647 7.96007 12.3474C8.10067 12.6551 8.37667 12.6603 8.66099 12.6603C9.05259 12.6603 9.44523 12.653 9.83683 12.653C10.1024 12.6541 10.368 12.6572 10.6315 12.6666ZM17.0502 11.1446C17.1241 10.7273 17.2585 10.3809 17.7063 10.3841C18.1843 10.3841 18.3416 10.7325 18.3395 11.1602C18.3395 11.5702 18.1677 11.879 17.723 11.88C17.2366 11.8811 17.1231 11.5034 17.0502 11.1446ZM12.829 11.8748C12.3885 11.8592 12.2364 11.5358 12.2166 11.1143C12.2552 10.7116 12.4166 10.3632 12.8925 10.3841C13.3216 10.4029 13.4987 10.7262 13.4945 11.1321C13.4945 11.5566 13.3133 11.8759 12.8623 11.8759L12.829 11.8748Z" fill="white"/>
</svg>
